<svg width="127" height="41" viewBox="0 0 127 41" fill="none" xmlns="http://www.w3.org/2000/svg">
<rect x="72" y="6.39606" width="55" height="33.9934" fill="black"/>
<path d="M13.875 9.51173C13.875 9.59507 13.8646 9.67319 13.8438 9.74611C13.8333 9.81903 13.8385 9.89715 13.8594 9.98048C13.5365 10.1784 13.3125 10.4388 13.1875 10.7617C13.0208 10.8451 12.8854 10.9597 12.7812 11.1055C12.6771 11.2409 12.5781 11.3867 12.4844 11.543C12.401 11.6888 12.3125 11.8347 12.2188 11.9805C12.125 12.1159 12 12.2305 11.8438 12.3242V12.668C11.7604 12.6472 11.7031 12.6576 11.6719 12.6992C11.651 12.7305 11.6146 12.7565 11.5625 12.7774C11.3542 13.1732 11.1406 13.569 10.9219 13.9649C10.7031 14.3503 10.4323 14.6992 10.1094 15.0117C10.026 15.2305 9.93229 15.444 9.82812 15.6524C9.72396 15.8607 9.61458 16.069 9.5 16.2774C9.38542 16.4857 9.27604 16.694 9.17188 16.9024C9.06771 17.1107 8.98438 17.3242 8.92188 17.543C8.71354 17.7617 8.53646 18.0065 8.39062 18.2774C8.24479 18.5378 8.10417 18.8034 7.96875 19.0742C7.84375 19.3347 7.70312 19.5951 7.54688 19.8555C7.40104 20.1159 7.22396 20.3555 7.01562 20.5742C7.02604 20.668 7.01042 20.7461 6.96875 20.8086C6.92708 20.8711 6.90625 20.9388 6.90625 21.0117C6.90625 21.2513 7.02083 21.5222 7.25 21.8242C7.48958 22.1159 7.77083 22.4128 8.09375 22.7149C8.41667 23.0065 8.73958 23.2774 9.0625 23.5274C9.38542 23.7774 9.63542 23.9701 9.8125 24.1055C10.0833 23.9909 10.3229 23.8763 10.5312 23.7617C10.7396 23.6367 10.9896 23.5638 11.2812 23.543C11.4271 23.6159 11.5417 23.7149 11.625 23.8399C11.7188 23.9544 11.7656 24.0899 11.7656 24.2461C11.7656 24.4857 11.6927 24.7149 11.5469 24.9336C11.401 25.1419 11.2396 25.3138 11.0625 25.4492C10.8958 25.4805 10.7292 25.5065 10.5625 25.5274C10.3958 25.5482 10.2292 25.5586 10.0625 25.5586C9.72917 25.5586 9.39583 25.5274 9.0625 25.4649C8.73958 25.3919 8.41667 25.3138 8.09375 25.2305C7.91667 25.0013 7.71875 24.8034 7.5 24.6367C7.29167 24.4597 7.05729 24.319 6.79688 24.2149C6.78646 24.0899 6.75521 23.9857 6.70312 23.9024C6.65104 23.819 6.58854 23.7461 6.51562 23.6836C6.44271 23.6107 6.35938 23.5482 6.26562 23.4961C6.18229 23.444 6.09896 23.3867 6.01562 23.3242C5.91146 23.3555 5.81771 23.4024 5.73438 23.4649C5.65104 23.5169 5.55729 23.5586 5.45312 23.5899C5.25521 24.069 4.98958 24.5169 4.65625 24.9336C4.67708 25.1211 4.64062 25.2669 4.54688 25.3711C4.46354 25.4649 4.35417 25.5638 4.21875 25.668C4.16667 25.9701 4.06771 26.2409 3.92188 26.4805C3.78646 26.7201 3.625 26.9544 3.4375 27.1836L3.45312 27.3086C3.45312 27.3503 3.4375 27.3867 3.40625 27.418C3.38542 27.4492 3.38021 27.5013 3.39062 27.5742C3.23438 27.7617 3.10417 27.9753 3 28.2149C2.89583 28.4649 2.79688 28.7201 2.70312 28.9805C2.61979 29.2409 2.53646 29.5013 2.45312 29.7617C2.38021 30.0222 2.29688 30.2669 2.20312 30.4961C2.24479 30.5899 2.26562 30.6992 2.26562 30.8242C2.26562 30.9388 2.25521 31.0534 2.23438 31.168C2.21354 31.2826 2.20312 31.3972 2.20312 31.5117C2.20312 31.6055 2.21875 31.694 2.25 31.7774C2.28125 31.8711 2.33854 31.9492 2.42188 32.0117C2.54688 31.8972 2.70833 31.8399 2.90625 31.8399C3.02083 31.8399 3.13021 31.8555 3.23438 31.8867C3.34896 31.918 3.45312 31.9597 3.54688 32.0117C3.58854 32.0951 3.60938 32.168 3.60938 32.2305C3.60938 32.3034 3.58854 32.3659 3.54688 32.418C3.51562 32.4805 3.47396 32.5378 3.42188 32.5899C3.38021 32.6524 3.33333 32.7097 3.28125 32.7617C3.23958 32.8138 3.21354 32.8763 3.20312 32.9492C2.96354 32.9701 2.72396 33.0065 2.48438 33.0586C2.25521 33.1107 2.03125 33.1888 1.8125 33.293C1.6875 33.2722 1.57292 33.2253 1.46875 33.1524C1.375 33.0899 1.26562 33.043 1.14062 33.0117C1.00521 32.8347 0.901042 32.6419 0.828125 32.4336C0.744792 32.2253 0.640625 32.0274 0.515625 31.8399C0.515625 31.6003 0.546875 31.3607 0.609375 31.1211C0.671875 30.8919 0.739583 30.6628 0.8125 30.4336C0.875 30.2044 0.932292 29.9701 0.984375 29.7305C1.03646 29.5013 1.05208 29.2669 1.03125 29.0274C1.13542 28.9753 1.21875 28.8919 1.28125 28.7774C1.34375 28.6732 1.39062 28.5534 1.42188 28.418C1.46354 28.293 1.5 28.1628 1.53125 28.0274C1.5625 27.9024 1.59896 27.7878 1.64062 27.6836C1.75521 27.6107 1.83854 27.5169 1.89062 27.4024C1.95312 27.2982 2.04167 27.2097 2.15625 27.1367C2.15625 27.1159 2.15104 27.0951 2.14062 27.0742C2.14062 27.0638 2.14062 27.0482 2.14062 27.0274C2.13021 27.0065 2.11979 26.9909 2.10938 26.9805C2.09896 26.9805 2.09375 26.9701 2.09375 26.9492C2.09375 26.9284 2.08854 26.9076 2.07812 26.8867C2.07812 26.8763 2.08333 26.8607 2.09375 26.8399L2.25 26.6367C2.39583 26.4492 2.50521 26.2774 2.57812 26.1211C2.65104 25.9544 2.73438 25.7669 2.82812 25.5586C2.91146 25.3607 3.01562 25.1628 3.14062 24.9649C3.26562 24.7669 3.38542 24.569 3.5 24.3711C3.77083 23.8815 4.03125 23.3972 4.28125 22.918C4.54167 22.4284 4.81771 21.944 5.10938 21.4649C5.02604 21.4024 4.95833 21.3294 4.90625 21.2461C4.85417 21.1524 4.80208 21.0586 4.75 20.9649C4.70833 20.8711 4.66146 20.7826 4.60938 20.6992C4.55729 20.6055 4.48438 20.5274 4.39062 20.4649C4.17188 19.8919 3.92188 19.3347 3.64062 18.793C3.36979 18.2409 3.10417 17.694 2.84375 17.1524C2.75 16.9544 2.66146 16.7565 2.57812 16.5586C2.50521 16.3503 2.41667 16.1576 2.3125 15.9805C2.28125 15.9284 2.24479 15.9076 2.20312 15.918C2.16146 15.9284 2.125 15.9128 2.09375 15.8711C2.01042 15.6315 1.9375 15.418 1.875 15.2305L1.64062 14.5274C1.68229 14.319 1.77604 14.168 1.92188 14.0742C2.06771 13.9805 2.23958 13.9336 2.4375 13.9336C2.59375 13.9336 2.76042 13.9597 2.9375 14.0117C3.03125 14.1159 3.11979 14.2305 3.20312 14.3555C3.28646 14.4701 3.38542 14.5794 3.5 14.6836V15.0899C3.80208 15.7044 4.08333 16.319 4.34375 16.9336C4.61458 17.5482 4.90625 18.1628 5.21875 18.7774C5.33333 18.7982 5.42708 18.8451 5.5 18.918C5.57292 18.9909 5.64062 19.069 5.70312 19.1524C5.76562 19.2357 5.82812 19.3138 5.89062 19.3867C5.96354 19.4597 6.0625 19.5013 6.1875 19.5117C6.22917 19.4909 6.29167 19.4232 6.375 19.3086C6.45833 19.1836 6.54167 19.0534 6.625 18.918C6.71875 18.7722 6.79688 18.6315 6.85938 18.4961C6.93229 18.3607 6.96875 18.2669 6.96875 18.2149V18.1055C7.65625 17.1576 8.23438 16.1524 8.70312 15.0899C8.80729 15.0378 8.89062 14.9701 8.95312 14.8867C9.01562 14.793 9.07292 14.6992 9.125 14.6055C9.1875 14.5013 9.25 14.4024 9.3125 14.3086C9.375 14.2149 9.45312 14.1367 9.54688 14.0742C9.59896 13.8555 9.68229 13.6524 9.79688 13.4649C9.91146 13.2774 10.0312 13.0899 10.1562 12.9024C10.2812 12.7149 10.401 12.5274 10.5156 12.3399C10.6302 12.1419 10.7188 11.9336 10.7812 11.7149C10.8958 11.6732 10.9844 11.6055 11.0469 11.5117C11.1198 11.418 11.1823 11.319 11.2344 11.2149C11.2865 11.1107 11.3438 11.0117 11.4062 10.918C11.4688 10.8242 11.5573 10.7565 11.6719 10.7149C11.7448 10.3711 11.8854 10.0899 12.0938 9.87111C12.3021 9.65236 12.5729 9.48569 12.9062 9.37111L12.9688 9.19923C13.0104 9.22007 13.0833 9.2409 13.1875 9.26173C13.2917 9.27215 13.3906 9.28778 13.4844 9.30861C13.5885 9.31903 13.6771 9.33986 13.75 9.37111C13.8333 9.40236 13.875 9.44923 13.875 9.51173ZM27.5312 21.2149V21.3242C27.5312 21.3555 27.526 21.3867 27.5156 21.418C27.401 21.6367 27.2604 21.8034 27.0938 21.918C26.9271 22.0326 26.7188 22.0899 26.4688 22.0899C26.3021 22.0899 26.1771 22.0742 26.0938 22.043C26.0208 22.0117 25.9219 21.9544 25.7969 21.8711C25.6094 21.8919 25.3958 21.9128 25.1562 21.9336C24.9167 21.944 24.6771 21.9701 24.4375 22.0117C24.1979 22.043 23.9688 22.0899 23.75 22.1524C23.5417 22.2149 23.3646 22.3086 23.2188 22.4336C23.125 23.1524 23.0729 23.8711 23.0625 24.5899C23.0625 25.2982 23.0521 26.0117 23.0312 26.7305C23.1146 26.9492 23.1719 27.1888 23.2031 27.4492C23.2344 27.7201 23.2552 27.9649 23.2656 28.1836C23.3385 28.3086 23.3958 28.4336 23.4375 28.5586C23.4792 28.694 23.5208 28.8294 23.5625 28.9649C23.6042 29.1003 23.651 29.2305 23.7031 29.3555C23.7656 29.4805 23.8438 29.5951 23.9375 29.6992C24.0208 29.6992 24.0938 29.7044 24.1562 29.7149C24.2292 29.7357 24.3021 29.7565 24.375 29.7774V29.8711C24.375 30.0274 24.4219 30.1419 24.5156 30.2149C24.6094 30.2878 24.7135 30.3659 24.8281 30.4492C24.8594 30.5638 24.875 30.6732 24.875 30.7774C24.875 30.9544 24.8333 31.1211 24.75 31.2774C24.6771 31.4336 24.5521 31.543 24.375 31.6055C24.2708 31.6055 24.1719 31.5899 24.0781 31.5586C23.9844 31.5378 23.8854 31.5274 23.7812 31.5274C23.7083 31.5274 23.6302 31.5378 23.5469 31.5586C23.4948 31.5378 23.4479 31.5065 23.4062 31.4649C23.375 31.4336 23.3385 31.4024 23.2969 31.3711C23.2552 31.3399 23.2083 31.3138 23.1562 31.293C23.1146 31.2722 23.0573 31.2669 22.9844 31.2774C22.9323 31.1315 22.849 30.9961 22.7344 30.8711C22.6198 30.7461 22.4792 30.694 22.3125 30.7149C22.3229 30.6732 22.3281 30.6107 22.3281 30.5274C22.3281 30.3815 22.2969 30.2461 22.2344 30.1211C22.1823 29.9961 22.099 29.8972 21.9844 29.8242C21.9323 29.5847 21.8854 29.319 21.8438 29.0274C21.8021 28.7461 21.7135 28.5013 21.5781 28.293C21.5781 27.9909 21.5469 27.6992 21.4844 27.418C21.4219 27.1472 21.3646 26.8659 21.3125 26.5742C21.3542 26.4076 21.375 26.2201 21.375 26.0117C21.375 25.8659 21.3698 25.7253 21.3594 25.5899C21.349 25.444 21.3438 25.3034 21.3438 25.168C21.3438 25.0222 21.3542 24.8815 21.375 24.7461C21.3958 24.6003 21.4479 24.4597 21.5312 24.3242C21.4688 24.2201 21.4271 24.1159 21.4062 24.0117C21.3854 23.8972 21.375 23.7826 21.375 23.668C21.375 23.4909 21.3854 23.319 21.4062 23.1524L21.4688 22.6524C21.4479 22.6419 21.4115 22.6367 21.3594 22.6367C21.2552 22.6367 21.1667 22.6576 21.0938 22.6992L20.8594 22.8086C20.8073 22.7982 20.7604 22.793 20.7188 22.793H20.5781C20.4219 22.793 20.2656 22.819 20.1094 22.8711C19.9635 22.9128 19.8333 22.9909 19.7188 23.1055C19.3646 23.1055 19.0104 23.1419 18.6562 23.2149C18.3021 23.2774 17.9479 23.3555 17.5938 23.4492C17.25 23.543 16.9062 23.6472 16.5625 23.7617C16.2188 23.8659 15.875 23.9597 15.5312 24.043C15.4479 24.4492 15.3854 24.8607 15.3438 25.2774C15.3021 25.6836 15.2812 26.1003 15.2812 26.5274V26.9024C15.2812 27.0378 15.2917 27.168 15.3125 27.293C15.3229 27.3763 15.349 27.4492 15.3906 27.5117C15.4427 27.5847 15.4688 27.6628 15.4688 27.7461C15.4688 27.819 15.4531 27.8763 15.4219 27.918C15.4948 28.043 15.6042 28.1524 15.75 28.2461C15.9062 28.194 16.0417 28.168 16.1562 28.168C16.3438 28.168 16.5208 28.2097 16.6875 28.293C16.8542 28.3867 17.0312 28.4492 17.2188 28.4805C17.1771 28.6263 17.1146 28.7669 17.0312 28.9024C16.9479 29.0482 16.8958 29.2044 16.875 29.3711C16.8333 29.3919 16.7917 29.4024 16.75 29.4024C16.7188 29.4024 16.6875 29.4024 16.6562 29.4024C16.625 29.4128 16.599 29.4336 16.5781 29.4649C16.5677 29.4961 16.5729 29.5586 16.5938 29.6524C16.4479 29.7253 16.3021 29.7722 16.1562 29.793C16.0104 29.8242 15.8594 29.8451 15.7031 29.8555C15.5573 29.8659 15.4062 29.8711 15.25 29.8711C15.1042 29.8711 14.9531 29.8763 14.7969 29.8867C14.7969 29.8242 14.7812 29.7722 14.75 29.7305C14.7292 29.6992 14.6979 29.6732 14.6562 29.6524C14.6146 29.6419 14.5677 29.6263 14.5156 29.6055C14.474 29.5847 14.4375 29.5586 14.4062 29.5274C14.3229 29.4544 14.2552 29.3555 14.2031 29.2305C14.1615 29.1159 14.1146 28.9909 14.0625 28.8555C14.0208 28.7305 13.974 28.6055 13.9219 28.4805C13.8698 28.3555 13.8073 28.2409 13.7344 28.1367C13.7135 27.9076 13.6979 27.6836 13.6875 27.4649C13.6771 27.2461 13.6719 27.0222 13.6719 26.793C13.6719 26.3659 13.6875 25.9492 13.7188 25.543C13.75 25.1263 13.776 24.6992 13.7969 24.2617C13.7031 24.168 13.5938 24.1263 13.4688 24.1367C13.3542 24.1472 13.2396 24.1367 13.125 24.1055C13 23.9492 12.8958 23.7774 12.8125 23.5899C12.7292 23.3919 12.6875 23.1888 12.6875 22.9805C12.6875 22.8763 12.7031 22.7669 12.7344 22.6524C12.8281 22.6211 12.9323 22.5899 13.0469 22.5586C13.1615 22.5274 13.224 22.444 13.2344 22.3086C13.3073 22.3503 13.3958 22.3711 13.5 22.3711C13.6042 22.3711 13.7083 22.3555 13.8125 22.3242C13.9167 22.293 14.0208 22.2669 14.125 22.2461C14.1667 22.0794 14.1979 21.918 14.2188 21.7617C14.25 21.5951 14.2552 21.4232 14.2344 21.2461C14.3802 21.0274 14.474 20.7878 14.5156 20.5274C14.5677 20.2669 14.6042 20.0169 14.625 19.7774V19.5586C14.625 19.4857 14.6302 19.4128 14.6406 19.3399C14.6615 19.2253 14.6927 19.0951 14.7344 18.9492C14.776 18.8034 14.8125 18.668 14.8438 18.543C14.8958 18.3451 14.9271 18.1576 14.9375 17.9805C14.9583 17.8034 14.9688 17.6211 14.9688 17.4336V17.3711C14.9688 17.319 14.9479 17.2826 14.9062 17.2617C14.8646 17.2305 14.8438 17.1888 14.8438 17.1367L14.8594 17.1055C14.901 16.7722 14.9479 16.444 15 16.1211C15.0625 15.7878 15.1458 15.4597 15.25 15.1367C15.1667 14.8972 15.125 14.6263 15.125 14.3242C15.125 13.9284 15.1875 13.5482 15.3125 13.1836C15.25 13.0169 15.2188 12.8555 15.2188 12.6992C15.2188 12.5742 15.224 12.4492 15.2344 12.3242C15.2552 12.1992 15.2604 12.0742 15.25 11.9492C15.3542 11.8972 15.4375 11.8242 15.5 11.7305C15.5729 11.6367 15.6562 11.5586 15.75 11.4961C16.0625 11.4857 16.3229 11.5899 16.5312 11.8086C16.75 12.0274 16.8594 12.293 16.8594 12.6055C16.8594 12.8451 16.7917 13.0742 16.6562 13.293C16.6979 13.4909 16.7188 13.7201 16.7188 13.9805C16.7188 14.3659 16.6927 14.7513 16.6406 15.1367C16.5885 15.5222 16.5729 15.9128 16.5938 16.3086C16.5312 16.4544 16.5 16.6315 16.5 16.8399C16.5104 17.0482 16.5052 17.2253 16.4844 17.3711C16.4635 17.5169 16.4323 17.668 16.3906 17.8242C16.349 17.9701 16.3229 18.1159 16.3125 18.2617C16.3021 18.5013 16.2917 18.7409 16.2812 18.9805C16.2812 19.2201 16.2552 19.4492 16.2031 19.668C16.1823 19.7513 16.151 19.8242 16.1094 19.8867C16.0781 19.9388 16.0521 20.0013 16.0312 20.0742C15.9896 20.293 15.974 20.5169 15.9844 20.7461C16.0052 20.9649 16.0052 21.1888 15.9844 21.418C15.974 21.4909 15.9531 21.5638 15.9219 21.6367C15.901 21.7097 15.8906 21.7878 15.8906 21.8711C15.8906 21.9128 15.901 21.9649 15.9219 22.0274C16.8698 21.944 17.8125 21.8034 18.75 21.6055C19.6875 21.4076 20.6302 21.2357 21.5781 21.0899C21.651 20.9544 21.6875 20.8138 21.6875 20.668C21.6875 20.5847 21.6719 20.5013 21.6406 20.418C21.7448 20.0742 21.8229 19.7305 21.875 19.3867C21.9375 19.0326 21.9896 18.6836 22.0312 18.3399C22.0729 17.9961 22.1094 17.6524 22.1406 17.3086C22.1719 16.9544 22.2135 16.6055 22.2656 16.2617L22.3594 15.7305C22.3906 15.5534 22.4323 15.3815 22.4844 15.2149C22.5052 15.1524 22.526 15.0899 22.5469 15.0274C22.5781 14.9649 22.5938 14.9076 22.5938 14.8555C22.5938 14.8034 22.5625 14.7669 22.5 14.7461C22.4479 14.7253 22.4219 14.6992 22.4219 14.668C22.4219 14.6472 22.4271 14.6367 22.4375 14.6367C22.4583 14.6263 22.474 14.6263 22.4844 14.6367C22.5365 14.543 22.5677 14.444 22.5781 14.3399C22.5885 14.2357 22.5938 14.1315 22.5938 14.0274C22.6042 13.9232 22.6198 13.8242 22.6406 13.7305C22.6615 13.6263 22.7031 13.5326 22.7656 13.4492C22.7552 13.3763 22.7344 13.3086 22.7031 13.2461C22.6719 13.1836 22.6562 13.1107 22.6562 13.0274C22.6458 13.0169 22.6458 13.0065 22.6562 12.9961C22.6771 12.9024 22.6875 12.8242 22.6875 12.7617C22.6979 12.6888 22.7031 12.6055 22.7031 12.5117C22.7031 12.3867 22.7604 12.2878 22.875 12.2149C22.8229 12.0378 22.7865 11.8451 22.7656 11.6367C22.7448 11.4284 22.7344 11.2253 22.7344 11.0274C22.7344 10.7565 22.7969 10.5326 22.9219 10.3555C23.0573 10.168 23.276 10.0742 23.5781 10.0742C23.7344 10.0742 23.8802 10.1055 24.0156 10.168C24.1615 10.2305 24.2812 10.319 24.375 10.4336C24.4271 10.6732 24.4531 10.8972 24.4531 11.1055C24.4531 11.2513 24.4427 11.3919 24.4219 11.5274C24.4115 11.6524 24.4062 11.7878 24.4062 11.9336C24.4062 12.0482 24.4167 12.1576 24.4375 12.2617C24.4583 12.3555 24.4792 12.4544 24.5 12.5586C24.4062 12.7044 24.3385 12.8659 24.2969 13.043C24.2552 13.2201 24.224 13.4024 24.2031 13.5899C24.1927 13.7774 24.1823 13.9701 24.1719 14.168C24.1719 14.3555 24.1667 14.5274 24.1562 14.6836C24.125 15.0274 24.0729 15.3659 24 15.6992C23.9375 16.0326 23.8646 16.3659 23.7812 16.6992C23.8125 16.8138 23.8281 16.918 23.8281 17.0117C23.8281 17.1992 23.8021 17.3867 23.75 17.5742C23.6979 17.7513 23.6823 17.9284 23.7031 18.1055C23.6302 18.293 23.5833 18.4857 23.5625 18.6836C23.5417 18.8711 23.526 19.069 23.5156 19.2774L23.4844 19.8867C23.474 20.0847 23.4375 20.2774 23.375 20.4649C23.3958 20.5169 23.4323 20.5482 23.4844 20.5586C23.5469 20.5586 23.5677 20.6003 23.5469 20.6836C23.7865 20.6107 24.0417 20.5794 24.3125 20.5899C24.5833 20.5899 24.8385 20.5899 25.0781 20.5899C25.2344 20.5899 25.3906 20.5899 25.5469 20.5899C25.7031 20.5794 25.8594 20.5586 26.0156 20.5274C26.1719 20.4857 26.3281 20.4388 26.4844 20.3867C26.651 20.3242 26.8125 20.293 26.9688 20.293C27.1875 20.293 27.3542 20.3711 27.4688 20.5274C27.4896 20.6419 27.5052 20.7565 27.5156 20.8711C27.526 20.9857 27.5312 21.1003 27.5312 21.2149ZM31.9219 27.5117C31.9219 27.6784 31.8646 27.8294 31.75 27.9649C31.6354 28.1003 31.5365 28.2305 31.4531 28.3555C31.3073 28.4284 31.1667 28.4701 31.0312 28.4805C30.9062 28.5013 30.7708 28.5378 30.625 28.5899C30.5729 28.6003 30.5156 28.6367 30.4531 28.6992C30.3698 28.6888 30.2865 28.6524 30.2031 28.5899C30.1198 28.5378 30.0365 28.5013 29.9531 28.4805C29.8385 28.4388 29.6875 28.4128 29.5 28.4024C29.3229 28.3919 29.1927 28.3399 29.1094 28.2461C28.9635 28.1003 28.8385 27.9076 28.7344 27.668C28.6406 27.4284 28.5625 27.1732 28.5 26.9024C28.4479 26.6315 28.4062 26.3659 28.375 26.1055C28.3542 25.8347 28.3438 25.6003 28.3438 25.4024C28.3438 25.069 28.3646 24.7357 28.4062 24.4024C28.4479 24.069 28.5104 23.7461 28.5938 23.4336V23.3555C28.5938 23.3034 28.5938 23.2617 28.5938 23.2305C28.6042 23.1888 28.6094 23.1419 28.6094 23.0899C28.6094 23.0586 28.6042 23.0274 28.5938 22.9961C28.5938 22.9649 28.5781 22.9388 28.5469 22.918C28.6823 22.5742 28.7812 22.2201 28.8438 21.8555C28.9062 21.4909 28.9531 21.1263 28.9844 20.7617C29.026 20.3867 29.0677 20.0169 29.1094 19.6524C29.1615 19.2774 29.2344 18.9128 29.3281 18.5586C29.3177 18.4961 29.3073 18.4284 29.2969 18.3555C29.2969 18.2826 29.2969 18.2149 29.2969 18.1524C29.2969 17.9649 29.3177 17.7826 29.3594 17.6055C29.401 17.418 29.4271 17.2253 29.4375 17.0274C29.4479 16.9649 29.4479 16.9024 29.4375 16.8399C29.4271 16.7669 29.4219 16.694 29.4219 16.6211C29.4219 16.1628 29.4427 15.7149 29.4844 15.2774C29.5365 14.8399 29.5625 14.3972 29.5625 13.9492C29.5625 13.7097 29.5417 13.4805 29.5 13.2617C29.4688 13.0326 29.4531 12.8034 29.4531 12.5742C29.4531 12.4701 29.4583 12.3711 29.4688 12.2774C29.4792 12.1732 29.5104 12.0794 29.5625 11.9961C29.7917 11.8399 30.0625 11.7617 30.375 11.7617C30.6042 11.7617 30.8021 11.8242 30.9688 11.9492C30.9583 11.9701 30.9531 12.0013 30.9531 12.043C30.9531 12.0951 30.9583 12.1419 30.9688 12.1836C30.9792 12.2253 30.9844 12.2722 30.9844 12.3242V12.3867C30.9844 12.4076 30.9792 12.4284 30.9688 12.4492C31.0417 12.5742 31.0885 12.7097 31.1094 12.8555C31.1406 12.9909 31.1562 13.1315 31.1562 13.2774C31.1562 13.4128 31.151 13.5482 31.1406 13.6836C31.1302 13.8086 31.125 13.9388 31.125 14.0742C31.125 14.2617 31.125 14.4492 31.125 14.6367C31.1354 14.8242 31.1406 15.0117 31.1406 15.1992C31.1406 15.6992 31.1146 16.194 31.0625 16.6836C31.0208 17.1628 30.9896 17.6524 30.9688 18.1524C30.9479 18.5794 30.8906 18.9961 30.7969 19.4024C30.7135 19.8086 30.6562 20.2201 30.625 20.6367C30.6146 20.7201 30.6094 20.8034 30.6094 20.8867C30.6198 20.9597 30.625 21.043 30.625 21.1367C30.625 21.3763 30.5781 21.6159 30.4844 21.8555C30.3906 22.0847 30.3438 22.3294 30.3438 22.5899C30.3438 22.7149 30.3646 22.8242 30.4062 22.918C30.3438 23.0847 30.2865 23.2826 30.2344 23.5117C30.1927 23.7409 30.151 23.9805 30.1094 24.2305C30.0781 24.4701 30.0521 24.7097 30.0312 24.9492C30.0104 25.1784 30 25.3815 30 25.5586C30 25.8086 30.0312 26.0638 30.0938 26.3242C30.1562 26.5742 30.2604 26.8034 30.4062 27.0117C30.5104 27.043 30.6354 27.0586 30.7812 27.0586C30.9271 27.0586 31.0729 27.0638 31.2188 27.0742C31.3646 27.0847 31.5 27.1107 31.625 27.1524C31.75 27.194 31.8438 27.2774 31.9062 27.4024C31.9167 27.4232 31.9219 27.444 31.9219 27.4649V27.5117ZM51.8438 24.0742C51.8438 24.2097 51.8073 24.3347 51.7344 24.4492C51.6615 24.5534 51.6406 24.6784 51.6719 24.8242C51.6302 24.8972 51.5729 24.9544 51.5 24.9961C51.4375 25.0378 51.4167 25.1159 51.4375 25.2305C51.2188 25.3451 51.0156 25.4909 50.8281 25.668C50.651 25.8347 50.4583 25.9961 50.25 26.1524C50.125 26.2461 50.0156 26.3138 49.9219 26.3555C49.8385 26.3867 49.7344 26.4388 49.6094 26.5117L49.2188 26.7617C49.0417 26.8555 48.8594 26.9492 48.6719 27.043C48.4948 27.1367 48.3333 27.2565 48.1875 27.4024C47.9688 27.4128 47.7448 27.4701 47.5156 27.5742C47.2865 27.6888 47.0677 27.7878 46.8594 27.8711C46.776 27.9024 46.6927 27.9232 46.6094 27.9336C46.526 27.9544 46.4427 27.9857 46.3594 28.0274L46.1094 28.1367C45.9635 28.2097 45.7917 28.2826 45.5938 28.3555C45.3958 28.4388 45.2188 28.4805 45.0625 28.4805C44.9688 28.5222 44.8906 28.5951 44.8281 28.6992C44.4844 28.8138 44.1302 28.9024 43.7656 28.9649C43.401 29.0274 43.0469 29.1263 42.7031 29.2617C42.5885 29.3138 42.4688 29.3815 42.3438 29.4649C42.2292 29.5586 42.1042 29.6003 41.9688 29.5899C41.9375 29.6419 41.9167 29.7044 41.9062 29.7774C41.8958 29.8503 41.8802 29.9232 41.8594 29.9961H41.8125C41.7708 29.9961 41.75 29.9753 41.75 29.9336C41.7604 29.8919 41.7448 29.8711 41.7031 29.8711C41.6719 29.8711 41.651 29.8763 41.6406 29.8867C41.5052 29.918 41.375 29.944 41.25 29.9649C41.1354 29.9857 41.0052 29.9961 40.8594 29.9961C40.776 29.9961 40.6406 29.9857 40.4531 29.9649C40.276 29.944 40.1458 29.918 40.0625 29.8867C40 29.8555 39.9479 29.7982 39.9062 29.7149C39.8646 29.6315 39.8229 29.543 39.7812 29.4492C39.75 29.3555 39.7188 29.2565 39.6875 29.1524C39.6667 29.0586 39.6458 28.9805 39.625 28.918C39.6562 28.8034 39.7083 28.7097 39.7812 28.6367C39.8542 28.5638 39.9115 28.4701 39.9531 28.3555C40.0469 28.3451 40.1406 28.3294 40.2344 28.3086C40.3281 28.2878 40.4219 28.2826 40.5156 28.293C40.8385 28.1992 41.1615 28.1055 41.4844 28.0117C41.8177 27.9284 42.1458 27.8399 42.4688 27.7461C42.7917 27.6524 43.1094 27.5482 43.4219 27.4336C43.7344 27.319 44.0365 27.1784 44.3281 27.0117H44.6562C44.8438 26.9076 45.0521 26.819 45.2812 26.7461C45.5104 26.6732 45.6979 26.5534 45.8438 26.3867C46.1875 26.3138 46.5469 26.2149 46.9219 26.0899C47.2969 25.9649 47.6094 25.7669 47.8594 25.4961C48.0156 25.4753 48.151 25.4388 48.2656 25.3867C48.3802 25.3242 48.4896 25.2617 48.5938 25.1992L48.9062 24.9961C49.0104 24.9232 49.1302 24.8659 49.2656 24.8242C49.349 24.7409 49.4271 24.6524 49.5 24.5586C49.5729 24.4649 49.6615 24.3867 49.7656 24.3242C49.7344 24.1576 49.651 24.0326 49.5156 23.9492C49.3802 23.8659 49.2604 23.7669 49.1562 23.6524H48.8125C48.5417 23.4857 48.25 23.3607 47.9375 23.2774C47.6354 23.1836 47.3333 23.0847 47.0312 22.9805C47.0104 22.9701 46.9844 22.9649 46.9531 22.9649C46.8802 22.9649 46.8333 22.9909 46.8125 23.043C46.8021 23.0951 46.7604 23.1159 46.6875 23.1055C46.5938 23.043 46.4948 23.0065 46.3906 22.9961C46.2865 22.9753 46.1771 22.9649 46.0625 22.9649C45.9167 22.9649 45.7708 22.9753 45.625 22.9961C45.4896 23.0065 45.349 23.0117 45.2031 23.0117C45.1302 23.0117 45.0573 23.0065 44.9844 22.9961C44.9115 22.9857 44.8385 22.9597 44.7656 22.918H44.5625C44.3438 22.918 44.125 22.9284 43.9062 22.9492C43.6979 22.9597 43.4896 22.9649 43.2812 22.9649C43.1667 22.9649 43.0573 22.9649 42.9531 22.9649C42.849 22.9544 42.7448 22.9388 42.6406 22.918C42.4219 23.0222 42.1875 23.0951 41.9375 23.1367C41.6875 23.1784 41.4271 23.2097 41.1562 23.2305C40.8958 23.2513 40.6354 23.2722 40.375 23.293C40.1146 23.3034 39.8646 23.3294 39.625 23.3711C39.5625 23.3607 39.5 23.3555 39.4375 23.3555C39.3854 23.3451 39.3333 23.3399 39.2812 23.3399C39.2292 23.3399 39.1719 23.3451 39.1094 23.3555C39.0573 23.3555 39.0052 23.3607 38.9531 23.3711C38.8177 23.2253 38.651 23.1211 38.4531 23.0586C38.2656 22.9857 38.0781 22.9388 37.8906 22.918C37.7448 22.7409 37.6354 22.5638 37.5625 22.3867C37.5 22.1992 37.4583 21.9909 37.4375 21.7617H37.5C37.5729 21.7617 37.6042 21.7253 37.5938 21.6524C37.5938 21.5794 37.6198 21.5169 37.6719 21.4649C37.724 21.4024 37.7917 21.3607 37.875 21.3399C37.9688 21.3086 38.0573 21.2774 38.1406 21.2461C38.224 21.2149 38.3021 21.1784 38.375 21.1367C38.4583 21.0847 38.5208 21.0065 38.5625 20.9024H38.7656C38.8073 20.9024 38.849 20.9076 38.8906 20.918C38.9427 20.918 38.9844 20.9336 39.0156 20.9649C39.0573 20.9232 39.1094 20.8867 39.1719 20.8555C39.2344 20.8242 39.2917 20.793 39.3438 20.7617C39.4062 20.7305 39.4583 20.694 39.5 20.6524C39.5417 20.6107 39.5677 20.5482 39.5781 20.4649C39.5885 20.4961 39.6146 20.5117 39.6562 20.5117C39.6979 20.5117 39.7344 20.5013 39.7656 20.4805C39.8073 20.4597 39.8542 20.4544 39.9062 20.4649C39.9583 20.319 40.0469 20.2409 40.1719 20.2305C40.2969 20.2201 40.4115 20.1836 40.5156 20.1211C40.5885 20.0794 40.6562 20.0326 40.7188 19.9805C40.7812 19.918 40.849 19.8607 40.9219 19.8086L41.8594 19.0899L43.2969 17.9961C43.776 17.6315 44.2656 17.293 44.7656 16.9805C44.7865 16.918 44.8177 16.8711 44.8594 16.8399C44.901 16.8086 44.9427 16.7774 44.9844 16.7461C45.026 16.7044 45.0573 16.6628 45.0781 16.6211C45.1094 16.5794 45.1198 16.5169 45.1094 16.4336C45.2552 16.4024 45.3646 16.3451 45.4375 16.2617C45.5208 16.1784 45.5938 16.0899 45.6562 15.9961C45.7188 15.8919 45.7812 15.793 45.8438 15.6992C45.9167 15.5951 46.0104 15.5169 46.125 15.4649C46.1146 15.4336 46.1094 15.3867 46.1094 15.3242C46.1094 15.2409 46.1146 15.1576 46.125 15.0742C46.1458 14.9909 46.1875 14.918 46.25 14.8555C46.1562 14.6367 45.9948 14.4805 45.7656 14.3867C45.5365 14.2826 45.3177 14.194 45.1094 14.1211H45.0625C45.0104 14.1211 44.9792 14.1472 44.9688 14.1992C44.9688 14.2409 44.9427 14.2722 44.8906 14.293C44.724 14.2513 44.5365 14.2305 44.3281 14.2305C44.1198 14.2305 43.9115 14.2461 43.7031 14.2774C43.5052 14.3086 43.3021 14.3138 43.0938 14.293C43.0625 14.3347 43.026 14.3763 42.9844 14.418C42.9531 14.4597 42.9115 14.4961 42.8594 14.5274C42.6406 14.5378 42.4219 14.569 42.2031 14.6211L41.5469 14.7774L41.1875 14.8555C41.1354 14.8763 41.099 14.9128 41.0781 14.9649C41.0573 15.0169 41.0417 15.0742 41.0312 15.1367C40.9688 15.1263 40.9271 15.1003 40.9062 15.0586C40.8958 15.0169 40.8594 14.9857 40.7969 14.9649C40.5573 15.1107 40.2969 15.2305 40.0156 15.3242C39.7448 15.418 39.5 15.5638 39.2812 15.7617C39.2083 15.6784 39.1042 15.6367 38.9688 15.6367C38.8542 15.6367 38.7292 15.6732 38.5938 15.7461C38.4583 15.819 38.375 15.9128 38.3438 16.0274C38.2396 16.0065 38.1615 15.9961 38.1094 15.9961C37.9948 15.9961 37.8958 16.0274 37.8125 16.0899C37.7396 16.1524 37.6667 16.2253 37.5938 16.3086C37.5208 16.3815 37.4427 16.4544 37.3594 16.5274C37.276 16.6003 37.1719 16.6419 37.0469 16.6524C37.0469 16.7044 37.0469 16.7617 37.0469 16.8242C37.0573 16.8763 37.0625 16.9336 37.0625 16.9961C37.0625 17.4649 37.0365 17.9336 36.9844 18.4024C36.9323 18.8607 36.9062 19.3242 36.9062 19.793C36.9062 19.8972 36.9115 20.0013 36.9219 20.1055C36.9323 20.1992 36.9375 20.3034 36.9375 20.418C36.9375 20.4492 36.9115 20.5169 36.8594 20.6211C36.8177 20.7253 36.7865 20.8034 36.7656 20.8555C36.8073 20.9701 36.8229 21.0847 36.8125 21.1992C36.8125 21.3138 36.8385 21.4232 36.8906 21.5274C36.7969 21.6107 36.75 21.7253 36.75 21.8711C36.75 21.9336 36.75 21.9961 36.75 22.0586C36.7604 22.1211 36.7656 22.1836 36.7656 22.2461V22.4336C36.7344 22.6419 36.7135 22.8555 36.7031 23.0742C36.6927 23.2826 36.6875 23.4909 36.6875 23.6992C36.6875 23.793 36.6875 23.9544 36.6875 24.1836C36.6979 24.4024 36.7135 24.6524 36.7344 24.9336C36.7552 25.2044 36.7865 25.4857 36.8281 25.7774C36.8698 26.069 36.9219 26.3399 36.9844 26.5899C37.0573 26.8294 37.1458 27.0274 37.25 27.1836C37.3542 27.3399 37.4792 27.418 37.625 27.418C37.6562 27.418 37.6927 27.4128 37.7344 27.4024C37.7865 27.3919 37.8125 27.3659 37.8125 27.3242C37.8125 27.2826 37.8021 27.2461 37.7812 27.2149C37.7708 27.1836 37.7656 27.1472 37.7656 27.1055L37.7812 27.0742C37.8646 27.1159 37.9531 27.1419 38.0469 27.1524C38.151 27.1628 38.2552 27.1732 38.3594 27.1836C38.4635 27.194 38.5625 27.2097 38.6562 27.2305C38.75 27.2617 38.8333 27.319 38.9062 27.4024C38.8646 27.4857 38.8438 27.5742 38.8438 27.668C38.8438 27.793 38.875 27.9076 38.9375 28.0117C39 28.1263 39.0417 28.2409 39.0625 28.3555C38.8646 28.418 38.6823 28.4857 38.5156 28.5586C38.3594 28.6419 38.2031 28.7149 38.0469 28.7774C37.8906 28.8503 37.724 28.9128 37.5469 28.9649C37.3698 29.0274 37.1667 29.069 36.9375 29.0899C36.7917 28.9961 36.6667 28.9128 36.5625 28.8399C36.4583 28.7669 36.3177 28.7201 36.1406 28.6992C35.8698 28.3347 35.6458 27.9232 35.4688 27.4649C35.2917 27.0169 35.151 26.5482 35.0469 26.0586C34.9531 25.569 34.8854 25.0794 34.8438 24.5899C34.8125 24.0899 34.7969 23.6211 34.7969 23.1836C34.7969 22.7044 34.8125 22.2305 34.8438 21.7617C34.8854 21.2826 34.9375 20.8034 35 20.3242C35.0208 20.1784 35.0417 20.0326 35.0625 19.8867C35.0833 19.7305 35.1042 19.5794 35.125 19.4336C35.1458 19.3815 35.1615 19.3242 35.1719 19.2617C35.1927 19.1888 35.2031 19.1263 35.2031 19.0742C35.2031 18.8972 35.1979 18.7201 35.1875 18.543C35.1771 18.3659 35.1719 18.194 35.1719 18.0274C35.1719 17.7669 35.1875 17.5013 35.2188 17.2305C35.2292 17.1784 35.2448 17.1107 35.2656 17.0274C35.2969 16.944 35.3125 16.8711 35.3125 16.8086C35.3125 16.7253 35.2917 16.668 35.25 16.6367C35.2083 16.6055 35.1719 16.5534 35.1406 16.4805C35.1719 16.3763 35.1979 16.2774 35.2188 16.1836C35.2396 16.0794 35.25 15.9753 35.25 15.8711C35.25 15.6732 35.2135 15.5013 35.1406 15.3555C35.1927 15.0847 35.2708 14.819 35.375 14.5586C35.4792 14.2982 35.6615 14.1003 35.9219 13.9649C36.1302 13.9753 36.3385 13.9961 36.5469 14.0274C36.7656 14.0586 36.9531 14.1472 37.1094 14.293C37.1823 14.2513 37.2656 14.2253 37.3594 14.2149L37.6562 14.1836C37.7604 14.1732 37.8542 14.1576 37.9375 14.1367C38.0208 14.1055 38.0938 14.0482 38.1562 13.9649C38.3646 13.9232 38.5885 13.8659 38.8281 13.793C39.0677 13.7097 39.276 13.6159 39.4531 13.5117H39.7969C39.8698 13.4597 39.9531 13.4232 40.0469 13.4024L40.3438 13.3242C40.4479 13.293 40.5417 13.2617 40.625 13.2305C40.7188 13.1992 40.7917 13.1472 40.8438 13.0742H40.9062C41.1458 13.0742 41.3802 13.0222 41.6094 12.918C41.8385 12.8138 42.0625 12.7201 42.2812 12.6367C42.3333 12.6159 42.4115 12.5794 42.5156 12.5274C42.6302 12.4753 42.7083 12.4492 42.75 12.4492C42.8958 12.4284 43.0417 12.418 43.1875 12.418C43.3333 12.4076 43.4792 12.3867 43.625 12.3555C43.9583 12.3034 44.2865 12.2461 44.6094 12.1836C44.9427 12.1107 45.276 12.0742 45.6094 12.0742C45.724 12.0742 45.8281 12.0794 45.9219 12.0899C46.026 12.0899 46.1354 12.0951 46.25 12.1055C46.2604 12.1472 46.2865 12.1836 46.3281 12.2149C46.3698 12.2357 46.4062 12.2565 46.4375 12.2774C46.4792 12.2982 46.5156 12.3294 46.5469 12.3711C46.5781 12.4024 46.5885 12.4492 46.5781 12.5117C46.599 12.5326 46.6198 12.543 46.6406 12.543C46.6719 12.543 46.6979 12.5274 46.7188 12.4961C46.75 12.4649 46.7917 12.4492 46.8438 12.4492H46.9219C47.0573 12.5951 47.1875 12.7357 47.3125 12.8711C47.4479 12.9961 47.6146 13.1003 47.8125 13.1836C47.8958 13.4961 47.9948 13.8034 48.1094 14.1055C48.224 14.4076 48.2812 14.7305 48.2812 15.0742C48.2812 15.2826 48.25 15.4857 48.1875 15.6836C48.0417 15.7565 47.9375 15.8711 47.875 16.0274C47.8125 16.1836 47.7552 16.3347 47.7031 16.4805C47.4115 16.6263 47.1667 16.819 46.9688 17.0586C46.7708 17.2982 46.5677 17.5378 46.3594 17.7774H46.1094C46.0677 17.7774 46.0365 17.793 46.0156 17.8242L45.875 17.9805C45.7812 18.0638 45.6771 18.1472 45.5625 18.2305C45.4583 18.3138 45.3802 18.4232 45.3281 18.5586C45.0052 18.7357 44.6927 18.9336 44.3906 19.1524C44.099 19.3711 43.8177 19.6003 43.5469 19.8399C43.4323 19.9336 43.3177 20.043 43.2031 20.168C43.0885 20.2826 42.974 20.3815 42.8594 20.4649C42.7969 20.5169 42.724 20.5638 42.6406 20.6055C42.5677 20.6367 42.5 20.6784 42.4375 20.7305C42.3021 20.8347 42.1771 20.944 42.0625 21.0586C41.9479 21.1628 41.8281 21.2617 41.7031 21.3555C42.1719 21.3347 42.6458 21.3242 43.125 21.3242C43.6042 21.3138 44.0781 21.3034 44.5469 21.293C44.7865 21.293 45.0208 21.2878 45.25 21.2774C45.4792 21.2565 45.7135 21.2461 45.9531 21.2461C45.9948 21.2461 46.0312 21.2565 46.0625 21.2774C46.0938 21.2878 46.1302 21.2982 46.1719 21.3086C46.349 21.3399 46.5052 21.3763 46.6406 21.418C47.1406 21.5117 47.6406 21.5951 48.1406 21.668C48.6406 21.7409 49.1302 21.8607 49.6094 22.0274C49.7448 22.0794 49.8438 22.1367 49.9062 22.1992C49.9792 22.2617 50.1042 22.2774 50.2812 22.2461C50.4271 22.3919 50.5833 22.5065 50.75 22.5899C50.9271 22.6732 51.1042 22.7461 51.2812 22.8086C51.4167 23.0169 51.5417 23.2149 51.6562 23.4024C51.7812 23.5899 51.8438 23.8138 51.8438 24.0742ZM57.1875 27.5117C57.1875 27.6784 57.1302 27.8294 57.0156 27.9649C56.901 28.1003 56.8021 28.2305 56.7188 28.3555C56.5729 28.4284 56.4323 28.4701 56.2969 28.4805C56.1719 28.5013 56.0365 28.5378 55.8906 28.5899C55.8385 28.6003 55.7812 28.6367 55.7188 28.6992C55.6354 28.6888 55.5521 28.6524 55.4688 28.5899C55.3854 28.5378 55.3021 28.5013 55.2188 28.4805C55.1042 28.4388 54.9531 28.4128 54.7656 28.4024C54.5885 28.3919 54.4583 28.3399 54.375 28.2461C54.2292 28.1003 54.1042 27.9076 54 27.668C53.9062 27.4284 53.8281 27.1732 53.7656 26.9024C53.7135 26.6315 53.6719 26.3659 53.6406 26.1055C53.6198 25.8347 53.6094 25.6003 53.6094 25.4024C53.6094 25.069 53.6302 24.7357 53.6719 24.4024C53.7135 24.069 53.776 23.7461 53.8594 23.4336V23.3555C53.8594 23.3034 53.8594 23.2617 53.8594 23.2305C53.8698 23.1888 53.875 23.1419 53.875 23.0899C53.875 23.0586 53.8698 23.0274 53.8594 22.9961C53.8594 22.9649 53.8438 22.9388 53.8125 22.918C53.9479 22.5742 54.0469 22.2201 54.1094 21.8555C54.1719 21.4909 54.2188 21.1263 54.25 20.7617C54.2917 20.3867 54.3333 20.0169 54.375 19.6524C54.4271 19.2774 54.5 18.9128 54.5938 18.5586C54.5833 18.4961 54.5729 18.4284 54.5625 18.3555C54.5625 18.2826 54.5625 18.2149 54.5625 18.1524C54.5625 17.9649 54.5833 17.7826 54.625 17.6055C54.6667 17.418 54.6927 17.2253 54.7031 17.0274C54.7135 16.9649 54.7135 16.9024 54.7031 16.8399C54.6927 16.7669 54.6875 16.694 54.6875 16.6211C54.6875 16.1628 54.7083 15.7149 54.75 15.2774C54.8021 14.8399 54.8281 14.3972 54.8281 13.9492C54.8281 13.7097 54.8073 13.4805 54.7656 13.2617C54.7344 13.0326 54.7188 12.8034 54.7188 12.5742C54.7188 12.4701 54.724 12.3711 54.7344 12.2774C54.7448 12.1732 54.776 12.0794 54.8281 11.9961C55.0573 11.8399 55.3281 11.7617 55.6406 11.7617C55.8698 11.7617 56.0677 11.8242 56.2344 11.9492C56.224 11.9701 56.2188 12.0013 56.2188 12.043C56.2188 12.0951 56.224 12.1419 56.2344 12.1836C56.2448 12.2253 56.25 12.2722 56.25 12.3242V12.3867C56.25 12.4076 56.2448 12.4284 56.2344 12.4492C56.3073 12.5742 56.3542 12.7097 56.375 12.8555C56.4062 12.9909 56.4219 13.1315 56.4219 13.2774C56.4219 13.4128 56.4167 13.5482 56.4062 13.6836C56.3958 13.8086 56.3906 13.9388 56.3906 14.0742C56.3906 14.2617 56.3906 14.4492 56.3906 14.6367C56.401 14.8242 56.4062 15.0117 56.4062 15.1992C56.4062 15.6992 56.3802 16.194 56.3281 16.6836C56.2865 17.1628 56.2552 17.6524 56.2344 18.1524C56.2135 18.5794 56.1562 18.9961 56.0625 19.4024C55.9792 19.8086 55.9219 20.2201 55.8906 20.6367C55.8802 20.7201 55.875 20.8034 55.875 20.8867C55.8854 20.9597 55.8906 21.043 55.8906 21.1367C55.8906 21.3763 55.8438 21.6159 55.75 21.8555C55.6562 22.0847 55.6094 22.3294 55.6094 22.5899C55.6094 22.7149 55.6302 22.8242 55.6719 22.918C55.6094 23.0847 55.5521 23.2826 55.5 23.5117C55.4583 23.7409 55.4167 23.9805 55.375 24.2305C55.3438 24.4701 55.3177 24.7097 55.2969 24.9492C55.276 25.1784 55.2656 25.3815 55.2656 25.5586C55.2656 25.8086 55.2969 26.0638 55.3594 26.3242C55.4219 26.5742 55.526 26.8034 55.6719 27.0117C55.776 27.043 55.901 27.0586 56.0469 27.0586C56.1927 27.0586 56.3385 27.0638 56.4844 27.0742C56.6302 27.0847 56.7656 27.1107 56.8906 27.1524C57.0156 27.194 57.1094 27.2774 57.1719 27.4024C57.1823 27.4232 57.1875 27.444 57.1875 27.4649V27.5117ZM73.7188 11.8399C73.6354 11.8919 73.5469 11.9232 73.4531 11.9336C73.3594 11.944 73.2604 11.9597 73.1562 11.9805C73.0625 11.9909 72.974 12.0117 72.8906 12.043C72.8073 12.0742 72.7448 12.1315 72.7031 12.2149C72.599 12.1107 72.4844 12.0222 72.3594 11.9492C72.2344 11.8763 72.1094 11.7982 71.9844 11.7149C71.8802 11.7461 71.776 11.7878 71.6719 11.8399C71.5677 11.8919 71.4635 11.918 71.3594 11.918C71.2865 11.918 71.2135 11.8919 71.1406 11.8399C71.0573 11.9024 70.9583 11.9544 70.8438 11.9961C70.7396 12.0274 70.625 12.0586 70.5 12.0899C70.3854 12.1211 70.276 12.1628 70.1719 12.2149C70.0781 12.2669 70.0104 12.3451 69.9688 12.4492C69.9479 12.3972 69.8958 12.3815 69.8125 12.4024C69.7396 12.4232 69.6979 12.3972 69.6875 12.3242C69.3542 12.4388 69.0156 12.5378 68.6719 12.6211C68.3281 12.7044 67.9844 12.793 67.6406 12.8867C67.2969 12.9805 66.9583 13.0847 66.625 13.1992C66.2917 13.3138 65.9688 13.4544 65.6562 13.6211C65.6458 13.6315 65.6406 13.6472 65.6406 13.668C65.6406 13.7722 65.6562 13.8711 65.6875 13.9649C65.7188 14.0586 65.7448 14.1472 65.7656 14.2305C65.5781 14.8659 65.4531 15.5117 65.3906 16.168C65.3281 16.8242 65.2448 17.4701 65.1406 18.1055V18.168C65.1406 18.2201 65.1615 18.2617 65.2031 18.293C65.2448 18.3138 65.2656 18.3555 65.2656 18.418L65.25 18.4492C65.1979 18.4805 65.1615 18.5274 65.1406 18.5899C65.1198 18.6419 65.1094 18.6992 65.1094 18.7617C65.1094 18.8034 65.1198 18.8659 65.1406 18.9492C64.9635 19.543 64.8438 20.1472 64.7812 20.7617C64.7292 21.3763 64.6615 21.9909 64.5781 22.6055L64.4375 23.6367C64.4167 23.6992 64.3958 23.7617 64.375 23.8242C64.3646 23.8763 64.3594 23.9336 64.3594 23.9961C64.3594 24.3294 64.3802 24.6576 64.4219 24.9805C64.474 25.293 64.4896 25.6159 64.4688 25.9492C64.5625 26.0951 64.6094 26.2357 64.6094 26.3711C64.6094 26.4232 64.6042 26.4753 64.5938 26.5274C64.5938 26.5794 64.5885 26.6315 64.5781 26.6836C64.7135 26.819 64.8698 26.9128 65.0469 26.9649C65.2344 27.0274 65.401 27.1211 65.5469 27.2461V27.3086C65.5469 27.4128 65.5312 27.5117 65.5 27.6055C65.4688 27.7097 65.4427 27.8138 65.4219 27.918C65.401 28.0013 65.375 28.1211 65.3438 28.2774C65.3229 28.4336 65.2917 28.5378 65.25 28.5899C65.1979 28.6628 65.1198 28.7253 65.0156 28.7774C64.9219 28.8399 64.8281 28.8711 64.7344 28.8711C64.7031 28.8711 64.6562 28.8555 64.5938 28.8242C64.5417 28.793 64.5 28.7669 64.4688 28.7461C64.4167 28.7461 64.349 28.7722 64.2656 28.8242C64.1823 28.8763 64.099 28.9024 64.0156 28.9024C63.974 28.9024 63.9375 28.8972 63.9062 28.8867C63.875 28.8867 63.8385 28.8763 63.7969 28.8555C63.7552 28.7513 63.6927 28.6576 63.6094 28.5742C63.5365 28.5013 63.4479 28.4284 63.3438 28.3555C63.3542 28.2097 63.3281 28.1003 63.2656 28.0274C63.2031 27.9544 63.1406 27.8607 63.0781 27.7461C63.0573 27.6003 63.0365 27.4336 63.0156 27.2461C63.0052 27.0586 62.9271 26.9232 62.7812 26.8399C62.8333 26.7669 62.8594 26.668 62.8594 26.543C62.8594 26.4909 62.849 26.4336 62.8281 26.3711C62.8177 26.3086 62.7865 26.2617 62.7344 26.2305V26.1992C62.724 26.1472 62.7396 26.1107 62.7812 26.0899C62.8333 26.0586 62.8594 26.0169 62.8594 25.9649V25.9024C62.7865 25.569 62.75 25.2201 62.75 24.8555C62.75 24.5117 62.7604 24.1732 62.7812 23.8399C62.8021 23.4961 62.8021 23.1524 62.7812 22.8086C62.8438 22.7565 62.8906 22.6732 62.9219 22.5586C62.9635 22.444 62.9948 22.319 63.0156 22.1836C63.0365 22.0482 63.0469 21.918 63.0469 21.793C63.0573 21.6576 63.0677 21.5482 63.0781 21.4649C63.1302 20.8711 63.2135 20.2878 63.3281 19.7149C63.4427 19.1315 63.5104 18.5378 63.5312 17.9336C63.5833 17.8503 63.6146 17.7409 63.625 17.6055C63.6354 17.4701 63.6406 17.3294 63.6406 17.1836C63.6406 17.0274 63.651 16.8763 63.6719 16.7305C63.6927 16.5847 63.7344 16.4597 63.7969 16.3555C63.7969 16.0638 63.8229 15.7722 63.875 15.4805C63.9271 15.1784 63.9531 14.8763 63.9531 14.5742C63.9531 14.4284 63.9375 14.2774 63.9062 14.1211C63.8021 14.0794 63.7083 14.0586 63.625 14.0586C63.5104 14.0586 63.3906 14.0847 63.2656 14.1367C63.151 14.1784 63.0677 14.2461 63.0156 14.3399C62.7865 14.3503 62.5625 14.3867 62.3438 14.4492C62.125 14.5117 61.9062 14.543 61.6875 14.543H61.5312C61.4896 14.543 61.4427 14.5378 61.3906 14.5274C61.3177 14.5586 61.2396 14.5847 61.1562 14.6055C61.0833 14.6263 61.0521 14.6888 61.0625 14.793C60.7396 14.8242 60.4219 14.8919 60.1094 14.9961C59.8073 15.1003 59.5052 15.2149 59.2031 15.3399C58.901 15.4544 58.599 15.5638 58.2969 15.668C57.9844 15.7722 57.6667 15.8399 57.3438 15.8711C57.2292 15.9232 57.1562 16.0326 57.125 16.1992C56.8958 16.1784 56.7031 16.1211 56.5469 16.0274C56.3906 15.9336 56.2083 15.8451 56 15.7617C55.9375 15.543 55.9062 15.3347 55.9062 15.1367C55.9062 14.8763 55.9583 14.6263 56.0625 14.3867C56.1667 14.1472 56.3333 13.9701 56.5625 13.8555C56.6146 13.8659 56.6615 13.8763 56.7031 13.8867C56.7448 13.8867 56.7917 13.8867 56.8438 13.8867C57.0104 13.8867 57.1771 13.8555 57.3438 13.793C57.5104 13.7305 57.6823 13.6992 57.8594 13.6992C57.9115 13.6992 57.9688 13.7149 58.0312 13.7461C58.1042 13.7044 58.1979 13.6732 58.3125 13.6524C58.4167 13.6211 58.5156 13.5951 58.6094 13.5742C58.7135 13.543 58.8073 13.5013 58.8906 13.4492C58.974 13.3972 59.026 13.3242 59.0469 13.2305C59.099 13.2722 59.1562 13.2982 59.2188 13.3086C59.2812 13.319 59.3438 13.3242 59.4062 13.3242C59.5417 13.3242 59.6823 13.2982 59.8281 13.2461C59.974 13.194 60.0885 13.1107 60.1719 12.9961C60.2448 13.0794 60.349 13.1211 60.4844 13.1211C60.6302 13.1211 60.7708 13.0847 60.9062 13.0117C61.0521 12.9284 61.1927 12.8867 61.3281 12.8867C61.4323 12.8867 61.5104 12.9232 61.5625 12.9961C61.6771 12.9024 61.8125 12.8294 61.9688 12.7774C62.125 12.7253 62.2812 12.6784 62.4375 12.6367C62.6042 12.5951 62.7552 12.5482 62.8906 12.4961C63.0365 12.444 63.151 12.3711 63.2344 12.2774C63.2865 12.2878 63.3698 12.293 63.4844 12.293C63.6615 12.293 63.8281 12.2722 63.9844 12.2305C64.151 12.1784 64.3177 12.1315 64.4844 12.0899L64.8125 12.0586C64.8958 12.0482 64.9688 12.0222 65.0312 11.9805C65.1042 11.9388 65.1771 11.9024 65.25 11.8711C65.3229 11.8399 65.3958 11.8138 65.4688 11.793C65.5521 11.7722 65.651 11.7669 65.7656 11.7774C66.0156 11.6419 66.2812 11.5378 66.5625 11.4649C66.8438 11.3919 67.1302 11.3294 67.4219 11.2774C67.7135 11.2149 68 11.1472 68.2812 11.0742C68.5625 10.9909 68.8281 10.8711 69.0781 10.7149H69.125C69.3333 10.7149 69.5365 10.6784 69.7344 10.6055C69.9427 10.5326 70.1354 10.4336 70.3125 10.3086C70.3438 10.319 70.375 10.3242 70.4062 10.3242H70.5156C70.8073 10.3242 71.0885 10.2826 71.3594 10.1992C71.6406 10.1159 71.9323 10.0742 72.2344 10.0742C72.4115 10.0742 72.5521 10.1003 72.6562 10.1524C72.7604 10.194 72.8542 10.2513 72.9375 10.3242C73.0208 10.3867 73.1094 10.4492 73.2031 10.5117C73.2969 10.5742 73.4167 10.6211 73.5625 10.6524C73.6562 10.8294 73.7031 11.0222 73.7031 11.2305C73.7031 11.4284 73.7083 11.6315 73.7188 11.8399Z" fill="black"/>
<path d="M95.7656 30.4492C95.7344 30.6263 95.6615 30.7513 95.5469 30.8242C95.4427 30.9076 95.3438 31.0222 95.25 31.168H95.1875C95.0833 31.168 94.9792 31.1784 94.875 31.1992C94.7812 31.2201 94.6823 31.2461 94.5781 31.2774C94.526 31.2565 94.4635 31.2409 94.3906 31.2305C94.3177 31.2201 94.2708 31.1836 94.25 31.1211C94.1667 31.1628 94.0521 31.1836 93.9062 31.1836C93.6667 31.1836 93.4375 31.1159 93.2188 30.9805C93.0104 30.8451 92.7917 30.7409 92.5625 30.668C92.5 30.543 92.4219 30.4284 92.3281 30.3242C92.2448 30.2305 92.1562 30.1367 92.0625 30.043C91.9792 29.9492 91.8958 29.8503 91.8125 29.7461C91.7292 29.6419 91.6615 29.5169 91.6094 29.3711C91.5885 29.3086 91.5625 29.2722 91.5312 29.2617C91.5 29.2513 91.4531 29.2513 91.3906 29.2617C91.401 29.1472 91.3854 29.0482 91.3438 28.9649C91.3125 28.8815 91.2344 28.8294 91.1094 28.8086C91.1094 28.6732 91.0885 28.5586 91.0469 28.4649C91.0052 28.3711 90.9531 28.2878 90.8906 28.2149C90.8385 28.1524 90.776 28.0847 90.7031 28.0117C90.6406 27.9388 90.5885 27.8503 90.5469 27.7461C90.4531 27.7253 90.3594 27.7097 90.2656 27.6992C90.1823 27.6992 90.0885 27.6992 89.9844 27.6992C89.4844 27.6992 89 27.793 88.5312 27.9805C88.4792 28.0013 88.4219 28.0274 88.3594 28.0586C88.3073 28.0899 88.2552 28.1159 88.2031 28.1367C88.1823 28.1367 88.1615 28.1367 88.1406 28.1367C88.1302 28.1472 88.1146 28.1524 88.0938 28.1524C88.0208 28.1524 87.9531 28.1367 87.8906 28.1055C87.8281 28.0847 87.7604 28.0742 87.6875 28.0742C87.6562 28.0742 87.6198 28.0794 87.5781 28.0899C87.5469 28.1107 87.5156 28.1263 87.4844 28.1367C87.3281 28.1888 87.1823 28.2201 87.0469 28.2305C86.6198 28.3138 86.1667 28.3763 85.6875 28.418C85.2188 28.4597 84.7865 28.569 84.3906 28.7461C84.3073 28.7878 84.2552 28.8503 84.2344 28.9336C84.2135 29.0274 84.2083 29.1159 84.2188 29.1992C84.1042 29.2826 84.0156 29.3919 83.9531 29.5274C83.901 29.6628 83.849 29.8034 83.7969 29.9492C83.7552 30.1055 83.7083 30.2565 83.6562 30.4024C83.6042 30.5482 83.5312 30.6732 83.4375 30.7774C83.4688 30.8399 83.4844 30.9076 83.4844 30.9805C83.4844 31.1367 83.4323 31.293 83.3281 31.4492C83.224 31.6055 83.1458 31.7565 83.0938 31.9024C83.0417 32.0482 83 32.1888 82.9688 32.3242C82.9375 32.4701 82.8906 32.6003 82.8281 32.7149C82.7656 32.8294 82.6823 32.9232 82.5781 32.9961C82.4635 33.069 82.3073 33.1055 82.1094 33.1055C81.9219 33.1055 81.7604 33.069 81.625 32.9961C81.4896 32.9232 81.3802 32.8294 81.2969 32.7149C81.2135 32.6003 81.1458 32.4649 81.0938 32.3086C81.0417 32.1524 81 31.9961 80.9688 31.8399C81.0833 31.6107 81.1927 31.4128 81.2969 31.2461C81.401 31.0794 81.4792 30.8659 81.5312 30.6055C81.7188 30.4701 81.8594 30.3034 81.9531 30.1055C82.0365 29.918 82.0833 29.7097 82.0938 29.4805C82.2083 29.4076 82.2917 29.3086 82.3438 29.1836C82.3854 29.069 82.4115 28.944 82.4219 28.8086C82.1719 28.7878 81.9115 28.7669 81.6406 28.7461C81.3594 28.7253 81.099 28.6732 80.8594 28.5899C80.8594 28.569 80.8646 28.5482 80.875 28.5274C80.875 28.5065 80.875 28.4857 80.875 28.4649C80.875 28.3294 80.8438 28.2044 80.7812 28.0899C80.7188 27.9857 80.6875 27.8711 80.6875 27.7461V27.6211C80.7708 27.5378 80.849 27.4492 80.9219 27.3555C80.9844 27.2722 81.0521 27.194 81.125 27.1211C81.1979 27.0482 81.2812 26.9857 81.375 26.9336C81.4688 26.8919 81.5885 26.8711 81.7344 26.8711C81.9323 26.8711 82.125 26.8815 82.3125 26.9024C82.5 26.9336 82.6927 26.9492 82.8906 26.9492C83.026 26.9492 83.1667 26.9336 83.3125 26.9024C83.5417 26.4336 83.7448 25.9597 83.9219 25.4805C84.099 24.9909 84.2344 24.4961 84.3281 23.9961C84.401 23.8919 84.4688 23.7722 84.5312 23.6367C84.5938 23.4909 84.6406 23.3399 84.6719 23.1836C84.7135 23.0274 84.7396 22.8763 84.75 22.7305C84.7708 22.5742 84.7812 22.4336 84.7812 22.3086C84.8958 22.1732 84.974 22.0065 85.0156 21.8086C85.0677 21.6107 85.1094 21.4076 85.1406 21.1992C85.1719 20.9805 85.2031 20.7669 85.2344 20.5586C85.276 20.3503 85.349 20.168 85.4531 20.0117V19.8711C85.4635 19.7149 85.4479 19.5742 85.4062 19.4492C85.4583 19.4284 85.4896 19.3815 85.5 19.3086C85.5104 19.2357 85.5312 19.1732 85.5625 19.1211C85.5729 18.6419 85.625 18.1732 85.7188 17.7149C85.8125 17.2461 85.8906 16.7774 85.9531 16.3086V16.2617C85.9531 16.2097 85.9323 16.1836 85.8906 16.1836C85.8594 16.1732 85.8438 16.1419 85.8438 16.0899C85.8438 15.9961 85.8542 15.8711 85.875 15.7149C85.9062 15.5586 85.9271 15.4284 85.9375 15.3242C86 14.7617 86.0312 14.2044 86.0312 13.6524C86.0312 13.1836 86.0156 12.7201 85.9844 12.2617C85.9531 11.8034 85.9219 11.3399 85.8906 10.8711L86.0156 10.6836C86.0573 10.6211 86.0938 10.5586 86.125 10.4961C86.2292 10.4544 86.3125 10.4128 86.375 10.3711C86.4479 10.319 86.5417 10.293 86.6562 10.293C86.6875 10.293 86.7135 10.2982 86.7344 10.3086C86.7552 10.3086 86.776 10.3086 86.7969 10.3086C86.8594 10.3503 86.9062 10.4076 86.9375 10.4805C86.9792 10.5534 87.0156 10.6211 87.0469 10.6836C87.0885 10.7461 87.1406 10.7982 87.2031 10.8399C87.2656 10.8815 87.3542 10.8919 87.4688 10.8711C87.5208 11.1628 87.6667 11.3138 87.9062 11.3242C87.9583 11.4701 88.0208 11.6159 88.0938 11.7617C88.1771 11.9076 88.2865 12.0222 88.4219 12.1055C88.4115 12.1472 88.4062 12.2044 88.4062 12.2774C88.4062 12.4232 88.4375 12.5638 88.5 12.6992C88.5729 12.8347 88.6615 12.9597 88.7656 13.0742V13.1055C88.7656 13.2201 88.724 13.2982 88.6406 13.3399C88.7344 13.444 88.8021 13.569 88.8438 13.7149C88.8854 13.8607 88.9219 14.0117 88.9531 14.168C88.9844 14.3138 89.0208 14.4544 89.0625 14.5899C89.1146 14.7253 89.1979 14.8294 89.3125 14.9024V14.9492C89.3125 15.0013 89.2917 15.0326 89.25 15.043C89.2188 15.0534 89.2031 15.0847 89.2031 15.1367C89.3906 15.4805 89.5208 15.8555 89.5938 16.2617C89.6667 16.668 89.7604 17.0586 89.875 17.4336C89.9167 17.4753 89.9635 17.5013 90.0156 17.5117C90.0781 17.5222 90.125 17.5482 90.1562 17.5899C90.0938 17.6315 90.0625 17.7044 90.0625 17.8086C90.0625 17.9128 90.0365 17.9909 89.9844 18.043C90.0677 18.1159 90.1042 18.2253 90.0938 18.3711C90.0938 18.5065 90.1354 18.6055 90.2188 18.668V18.7305C90.2188 18.7722 90.2083 18.8086 90.1875 18.8399C90.1667 18.8607 90.1562 18.8919 90.1562 18.9336V18.9961C90.2396 19.3607 90.3021 19.7253 90.3438 20.0899C90.3958 20.4544 90.4479 20.819 90.5 21.1836C90.5521 21.5482 90.6094 21.9128 90.6719 22.2774C90.7344 22.6315 90.8229 22.9805 90.9375 23.3242C90.9479 23.3347 90.9531 23.3503 90.9531 23.3711C90.9531 23.4232 90.9323 23.4544 90.8906 23.4649C90.849 23.4649 90.8281 23.4909 90.8281 23.543C90.8281 23.5951 90.8438 23.6576 90.875 23.7305C90.9167 23.793 90.9583 23.8451 91 23.8867C90.9896 23.9284 90.9844 23.9909 90.9844 24.0742C90.9844 24.2305 91.0104 24.3815 91.0625 24.5274C91.125 24.6732 91.1875 24.819 91.25 24.9649C91.3229 25.1003 91.3854 25.2461 91.4375 25.4024C91.4896 25.5586 91.5104 25.7253 91.5 25.9024C91.5625 25.9961 91.6406 26.0742 91.7344 26.1367C91.8385 26.1992 91.9427 26.2565 92.0469 26.3086C92.151 26.3607 92.2448 26.4232 92.3281 26.4961C92.4219 26.569 92.4844 26.668 92.5156 26.793C92.4323 26.8659 92.375 26.9544 92.3438 27.0586C92.3125 27.1732 92.2552 27.2722 92.1719 27.3555C92.2448 27.5326 92.3281 27.694 92.4219 27.8399C92.526 27.9961 92.6302 28.1472 92.7344 28.293L93.0625 28.7305C93.1771 28.8763 93.276 29.0326 93.3594 29.1992C93.474 29.1992 93.5573 29.2305 93.6094 29.293C93.6615 29.3555 93.7448 29.3815 93.8594 29.3711C93.901 29.4544 93.9167 29.5482 93.9062 29.6524C94.1146 29.5794 94.3229 29.543 94.5312 29.543C94.6458 29.543 94.75 29.5482 94.8438 29.5586C94.9479 29.569 95.0521 29.5742 95.1562 29.5742C95.2812 29.5742 95.3906 29.5586 95.4844 29.5274C95.526 29.5899 95.5573 29.6576 95.5781 29.7305C95.599 29.8138 95.6146 29.8972 95.625 29.9805L95.6719 30.2305C95.6927 30.3138 95.724 30.3867 95.7656 30.4492ZM89.875 26.1211C89.7292 25.4024 89.5781 24.6888 89.4219 23.9805C89.276 23.2617 89.1458 22.5378 89.0312 21.8086C88.9688 21.4232 88.9219 21.0378 88.8906 20.6524C88.8594 20.2669 88.8177 19.8867 88.7656 19.5117C88.724 19.1263 88.6615 18.7461 88.5781 18.3711C88.5052 17.9961 88.3958 17.6263 88.25 17.2617V17.2305C88.25 17.1992 88.2604 17.1732 88.2812 17.1524C88.3021 17.1315 88.3125 17.0951 88.3125 17.043V16.9805C88.1771 16.8867 88.0833 16.7565 88.0312 16.5899C87.9792 16.4128 87.9323 16.2305 87.8906 16.043C87.8594 15.8451 87.8125 15.6576 87.75 15.4805C87.6979 15.293 87.6042 15.1367 87.4688 15.0117C87.4167 15.6159 87.3594 16.2201 87.2969 16.8242C87.2448 17.418 87.2083 18.0169 87.1875 18.6211C87.0833 18.6836 87.0156 18.7878 86.9844 18.9336C86.9531 19.0794 86.9375 19.2097 86.9375 19.3242C86.9375 19.4076 86.9427 19.4961 86.9531 19.5899C86.9635 19.6732 86.9844 19.7617 87.0156 19.8555C86.8281 20.3242 86.6927 20.8086 86.6094 21.3086C86.526 21.7982 86.4323 22.2878 86.3281 22.7774C86.3177 22.8086 86.2969 22.8815 86.2656 22.9961C86.2448 23.1003 86.2188 23.2097 86.1875 23.3242C86.1562 23.4388 86.1302 23.543 86.1094 23.6367C86.0885 23.7201 86.0781 23.7669 86.0781 23.7774C86.0677 23.8503 86.0625 23.9232 86.0625 23.9961C86.0729 24.069 86.0781 24.1419 86.0781 24.2149L85.8438 24.4492C85.8021 24.8451 85.724 25.2305 85.6094 25.6055C85.5052 25.9701 85.3958 26.3451 85.2812 26.7305C85.3542 26.7409 85.4219 26.7461 85.4844 26.7461C85.5573 26.7565 85.6302 26.7617 85.7031 26.7617C86.0365 26.7617 86.3698 26.7409 86.7031 26.6992C87.0469 26.6472 87.3854 26.6003 87.7188 26.5586C87.8333 26.5378 87.9531 26.5222 88.0781 26.5117C88.2031 26.4909 88.3229 26.4805 88.4375 26.4805C88.4896 26.4701 88.5521 26.4701 88.625 26.4805C88.6979 26.4805 88.7604 26.4753 88.8125 26.4649C88.8958 26.444 88.9479 26.4128 88.9688 26.3711C89 26.319 89.0573 26.2878 89.1406 26.2774C89.2031 26.3086 89.276 26.3242 89.3594 26.3242C89.4531 26.3242 89.5417 26.3034 89.625 26.2617C89.7083 26.2201 89.7917 26.1732 89.875 26.1211ZM112.141 27.3711C112.12 27.5794 112.047 27.7409 111.922 27.8555C111.797 27.9805 111.635 28.043 111.438 28.043C111.333 28.043 111.234 28.0274 111.141 27.9961C110.943 28.1524 110.708 28.2722 110.438 28.3555C110.167 28.4388 109.911 28.5222 109.672 28.6055C109.38 28.5951 109.094 28.569 108.812 28.5274C108.531 28.4857 108.24 28.4753 107.938 28.4961C107.833 28.4232 107.724 28.3763 107.609 28.3555C107.495 28.3347 107.375 28.319 107.25 28.3086C107.135 28.3086 107.021 28.293 106.906 28.2617C106.802 28.2305 106.698 28.1576 106.594 28.043H105.812C105.74 28.043 105.63 28.0065 105.484 27.9336C105.349 27.8711 105.193 27.8034 105.016 27.7305C104.849 27.6576 104.667 27.5899 104.469 27.5274C104.281 27.4649 104.104 27.4336 103.938 27.4336H103.844C103.729 27.3399 103.594 27.2669 103.438 27.2149C103.292 27.1732 103.141 27.1315 102.984 27.0899C102.828 27.0586 102.677 27.0222 102.531 26.9805C102.385 26.9388 102.26 26.8815 102.156 26.8086C102.052 26.7357 101.932 26.6628 101.797 26.5899C101.661 26.5065 101.521 26.4701 101.375 26.4805C101.177 26.3659 100.969 26.2669 100.75 26.1836C100.542 26.1003 100.328 26.0222 100.109 25.9492L99.4688 25.7149C99.2604 25.6315 99.0521 25.5326 98.8438 25.418C98.8125 25.4284 98.776 25.4284 98.7344 25.418C98.6927 25.4076 98.6562 25.4024 98.625 25.4024C98.5625 25.4024 98.526 25.4232 98.5156 25.4649C98.4427 25.3919 98.3594 25.3294 98.2656 25.2774C98.1823 25.2253 98.099 25.1628 98.0156 25.0899C97.974 25.1003 97.9323 25.1107 97.8906 25.1211C97.8594 25.1211 97.8177 25.1211 97.7656 25.1211C97.6719 25.1211 97.5781 25.1107 97.4844 25.0899C97.401 25.069 97.3177 25.043 97.2344 25.0117C97.1406 25.2201 97.0781 25.4544 97.0469 25.7149C97.0156 25.9753 96.9896 26.2461 96.9688 26.5274C96.9583 26.7982 96.9427 27.069 96.9219 27.3399C96.901 27.6211 96.8542 27.8763 96.7812 28.1055C96.8021 28.1888 96.8125 28.2722 96.8125 28.3555V28.6211C96.8125 28.7982 96.8385 28.9388 96.8906 29.043C96.8698 29.1367 96.849 29.2253 96.8281 29.3086C96.8177 29.3919 96.8021 29.4753 96.7812 29.5586C96.7917 29.6732 96.7969 29.7774 96.7969 29.8711C96.8073 29.9753 96.8125 30.0847 96.8125 30.1992V30.4649C96.8125 30.5586 96.8021 30.6524 96.7812 30.7461C96.6771 30.8086 96.5729 30.8659 96.4688 30.918C96.3646 30.9805 96.2604 31.0534 96.1562 31.1367C96.0833 31.0013 95.9583 30.9232 95.7812 30.9024C95.7396 30.9544 95.7083 31.0222 95.6875 31.1055C95.6771 31.1992 95.6302 31.2461 95.5469 31.2461C95.401 31.1315 95.2812 31.0378 95.1875 30.9649C95.0938 30.8919 94.9896 30.7826 94.875 30.6367C94.8646 30.6159 94.8594 30.5899 94.8594 30.5586C94.8594 30.5065 94.8698 30.4597 94.8906 30.418C94.9115 30.3763 94.9219 30.3347 94.9219 30.293C94.9219 30.168 94.9062 30.0586 94.875 29.9649C94.8542 29.8294 94.8385 29.694 94.8281 29.5586C94.8177 29.4336 94.8125 29.3086 94.8125 29.1836C94.8125 29.0065 94.8229 28.8347 94.8438 28.668C94.875 28.5013 94.9271 28.3294 95 28.1524C95.1146 27.8503 95.1927 27.5326 95.2344 27.1992C95.2865 26.8659 95.3229 26.5326 95.3438 26.1992C95.3646 25.8555 95.375 25.5117 95.375 25.168C95.3854 24.8242 95.4062 24.4961 95.4375 24.1836C95.3646 24.0169 95.276 23.8867 95.1719 23.793C95.0781 23.6888 95.0312 23.5274 95.0312 23.3086C95.0312 23.1107 95.0938 22.9597 95.2188 22.8555C95.3438 22.7409 95.4531 22.6055 95.5469 22.4492C95.526 22.3867 95.5417 22.3451 95.5938 22.3242L95.7812 20.6836C95.7917 20.569 95.8073 20.444 95.8281 20.3086C95.8594 20.1732 95.8802 20.0482 95.8906 19.9336C95.9115 19.694 95.9219 19.4597 95.9219 19.2305C95.9219 19.0013 95.9323 18.7722 95.9531 18.543C96.0052 18.0326 96.0521 17.5274 96.0938 17.0274C96.1458 16.5274 96.1719 16.0274 96.1719 15.5274C96.1719 15.2878 96.1615 15.0482 96.1406 14.8086C96.1302 14.569 96.099 14.3294 96.0469 14.0899C95.8698 14.1419 95.6719 14.1992 95.4531 14.2617C95.2448 14.3138 95.0677 14.4076 94.9219 14.543H94.7969C94.526 14.543 94.2708 14.5951 94.0312 14.6992C93.8021 14.8034 93.5677 14.9024 93.3281 14.9961C93.224 15.0482 93.1198 15.0847 93.0156 15.1055C92.9115 15.1159 92.8021 15.1367 92.6875 15.168C92.6354 15.1784 92.5781 15.2097 92.5156 15.2617C92.4531 15.3138 92.3958 15.3503 92.3438 15.3711L92.0781 15.4336C92.0052 15.4544 91.974 15.5013 91.9844 15.5742C91.9948 15.6472 91.9688 15.694 91.9062 15.7149C91.8542 15.7669 91.7812 15.793 91.6875 15.793C91.5938 15.7826 91.5208 15.7774 91.4688 15.7774H91.4062C91.1458 15.9649 90.8958 16.1263 90.6562 16.2617C90.4062 16.3867 90.1146 16.4701 89.7812 16.5117L89.4375 16.7305C89.3229 16.8034 89.1927 16.8399 89.0469 16.8399C88.9323 16.8399 88.8385 16.819 88.7656 16.7774C88.6823 16.6524 88.6198 16.5117 88.5781 16.3555C88.526 16.1992 88.4427 16.0638 88.3281 15.9492C88.3802 15.8972 88.4167 15.8294 88.4375 15.7461C88.4479 15.6524 88.4635 15.569 88.4844 15.4961C88.7969 15.3607 89.1146 15.2305 89.4375 15.1055C89.75 14.9805 90.0521 14.8294 90.3438 14.6524C90.375 14.6628 90.4219 14.668 90.4844 14.668C90.5885 14.668 90.6823 14.6524 90.7656 14.6211C90.849 14.5899 90.9323 14.5534 91.0156 14.5117C91.099 14.4701 91.1823 14.4336 91.2656 14.4024C91.349 14.3711 91.4479 14.3607 91.5625 14.3711C91.9167 14.1732 92.2917 14.0117 92.6875 13.8867C93.0833 13.7617 93.4583 13.5899 93.8125 13.3711C93.8646 13.3711 93.9062 13.3815 93.9375 13.4024C93.9792 13.4232 94.0208 13.4336 94.0625 13.4336C94.1042 13.4336 94.1302 13.4284 94.1406 13.418C94.2031 13.3347 94.2865 13.2774 94.3906 13.2461C94.4948 13.2044 94.599 13.1732 94.7031 13.1524C94.8177 13.1211 94.9219 13.0847 95.0156 13.043C95.1198 12.9909 95.1875 12.9128 95.2188 12.8086C95.2708 12.8503 95.349 12.8711 95.4531 12.8711C95.6302 12.8711 95.7917 12.8347 95.9375 12.7617C96.0938 12.6888 96.2604 12.6524 96.4375 12.6524C96.4792 12.6524 96.5156 12.6628 96.5469 12.6836C96.5885 12.694 96.6302 12.6992 96.6719 12.6992C96.7552 12.6992 96.7969 12.6732 96.7969 12.6211C96.8073 12.569 96.8385 12.5222 96.8906 12.4805C97.526 12.3659 98.1562 12.2617 98.7812 12.168C99.4167 12.0742 100.057 12.0274 100.703 12.0274C100.797 11.9649 100.901 11.9336 101.016 11.9336C101.13 11.9336 101.234 11.9649 101.328 12.0274C101.505 12.0065 101.682 11.9909 101.859 11.9805C102.036 11.9701 102.214 11.9649 102.391 11.9649C102.797 11.9649 103.214 11.9909 103.641 12.043C104.068 12.0951 104.49 12.1784 104.906 12.293C105.333 12.3972 105.74 12.543 106.125 12.7305C106.51 12.9076 106.87 13.1211 107.203 13.3711C107.234 13.4649 107.276 13.5586 107.328 13.6524C107.38 13.7461 107.448 13.819 107.531 13.8711C107.531 13.8919 107.526 13.9076 107.516 13.918C107.516 13.9284 107.516 13.944 107.516 13.9649C107.516 14.0794 107.547 14.1888 107.609 14.293C107.682 14.3972 107.719 14.5222 107.719 14.668C107.719 14.8138 107.693 14.9597 107.641 15.1055C107.599 15.2513 107.583 15.3972 107.594 15.543C107.479 15.7097 107.38 15.8607 107.297 15.9961C107.224 16.1315 107.177 16.3034 107.156 16.5117C106.969 16.6992 106.802 16.9076 106.656 17.1367C106.51 17.3555 106.359 17.5742 106.203 17.793C106.057 18.0013 105.891 18.194 105.703 18.3711C105.516 18.5482 105.292 18.6888 105.031 18.793C105.021 18.8972 104.979 19.0117 104.906 19.1367H104.578C104.547 19.2201 104.495 19.2826 104.422 19.3242L104.203 19.4492C104.13 19.4909 104.068 19.543 104.016 19.6055C103.974 19.668 103.953 19.7565 103.953 19.8711C103.932 19.8607 103.906 19.8555 103.875 19.8555C103.771 19.8555 103.646 19.9076 103.5 20.0117C103.365 20.1159 103.255 20.1992 103.172 20.2617C102.995 20.3867 102.812 20.5013 102.625 20.6055C102.448 20.7097 102.292 20.8555 102.156 21.043C101.74 21.2201 101.344 21.4284 100.969 21.668C100.594 21.8972 100.188 22.0794 99.75 22.2149C99.5833 22.3919 99.3854 22.5326 99.1562 22.6367C98.9375 22.7305 98.724 22.8347 98.5156 22.9492V22.9961C98.5156 23.0794 98.5469 23.1628 98.6094 23.2461C98.6719 23.319 98.7448 23.3867 98.8281 23.4492C98.9115 23.5013 99 23.5378 99.0938 23.5586C99.1979 23.5794 99.2865 23.5794 99.3594 23.5586C99.5677 23.7461 99.8073 23.8972 100.078 24.0117C100.349 24.1263 100.63 24.2305 100.922 24.3242C101.214 24.418 101.5 24.5169 101.781 24.6211C102.062 24.7253 102.323 24.8555 102.562 25.0117H102.938C103.177 25.2201 103.458 25.3763 103.781 25.4805C104.115 25.5847 104.432 25.6784 104.734 25.7617C104.859 25.8763 105.016 25.9649 105.203 26.0274C105.401 26.0794 105.589 26.1055 105.766 26.1055H105.859C105.901 26.1055 105.938 26.1003 105.969 26.0899V26.1211C105.969 26.1732 105.984 26.2097 106.016 26.2305C106.047 26.2409 106.078 26.2513 106.109 26.2617C106.151 26.2617 106.188 26.2722 106.219 26.293C106.26 26.3034 106.292 26.3242 106.312 26.3555H106.469C106.688 26.3555 106.896 26.4024 107.094 26.4961C107.292 26.5794 107.5 26.6211 107.719 26.6211C107.812 26.6211 107.885 26.6107 107.938 26.5899C108 26.6107 108.047 26.6524 108.078 26.7149C108.109 26.7774 108.151 26.8294 108.203 26.8711C108.276 26.8607 108.344 26.8503 108.406 26.8399C108.469 26.8399 108.531 26.8399 108.594 26.8399C108.823 26.8399 109.036 26.8659 109.234 26.918C109.432 26.9701 109.635 27.0482 109.844 27.1524C110.177 27.0065 110.505 26.8867 110.828 26.793C111.151 26.6992 111.495 26.6524 111.859 26.6524V26.6836C111.859 26.8086 111.891 26.9232 111.953 27.0274C112.026 27.1419 112.089 27.2565 112.141 27.3711ZM106.156 14.9024C106.156 14.7774 106.13 14.6784 106.078 14.6055C106.036 14.5326 105.979 14.4701 105.906 14.418C105.833 14.3555 105.755 14.2982 105.672 14.2461C105.599 14.194 105.531 14.1263 105.469 14.043C105.198 13.9597 104.932 13.8659 104.672 13.7617C104.411 13.6576 104.146 13.569 103.875 13.4961C103.74 13.4649 103.604 13.4388 103.469 13.418C103.333 13.3867 103.198 13.3711 103.062 13.3711H102.719C102.656 13.3607 102.589 13.3503 102.516 13.3399C102.453 13.319 102.391 13.3034 102.328 13.293C102.182 13.2722 102.036 13.2565 101.891 13.2461C101.755 13.2357 101.615 13.2305 101.469 13.2305C101.198 13.2305 100.927 13.2409 100.656 13.2617L99.8438 13.3242C99.7292 13.3347 99.6094 13.3399 99.4844 13.3399C99.3594 13.3399 99.2448 13.3503 99.1406 13.3711C99.0885 13.3815 99.0156 13.4076 98.9219 13.4492C98.8281 13.4805 98.7292 13.5169 98.625 13.5586C98.5208 13.5899 98.4167 13.6263 98.3125 13.668C98.2188 13.7097 98.1354 13.7409 98.0625 13.7617C98.0729 13.8347 98.0781 13.9076 98.0781 13.9805V14.1836C98.0781 14.3399 98.0729 14.4961 98.0625 14.6524C98.0521 14.8086 98.0312 14.9649 98 15.1211C97.9896 15.1836 97.974 15.2461 97.9531 15.3086C97.9323 15.3711 97.9167 15.4336 97.9062 15.4961C97.8854 15.5899 97.875 15.694 97.875 15.8086V16.1055C97.8542 16.3451 97.8385 16.5794 97.8281 16.8086C97.8177 17.0378 97.8021 17.2722 97.7812 17.5117C97.7188 18.1992 97.651 18.8815 97.5781 19.5586C97.5156 20.2357 97.474 20.918 97.4531 21.6055C97.7969 21.5326 98.125 21.4232 98.4375 21.2774C98.75 21.1315 99.0573 20.9753 99.3594 20.8086C99.6615 20.6315 99.9635 20.4597 100.266 20.293C100.568 20.1263 100.885 19.9857 101.219 19.8711C101.302 19.7565 101.401 19.6628 101.516 19.5899C101.641 19.5169 101.745 19.4232 101.828 19.3086C101.932 19.3086 102.01 19.2878 102.062 19.2461C102.115 19.194 102.182 19.1576 102.266 19.1367C102.766 18.6992 103.276 18.2878 103.797 17.9024C104.318 17.5169 104.818 17.1055 105.297 16.668C105.339 16.5222 105.406 16.3815 105.5 16.2461C105.604 16.1003 105.703 15.9544 105.797 15.8086C105.891 15.6628 105.974 15.5169 106.047 15.3711C106.12 15.2253 106.156 15.069 106.156 14.9024ZM122.281 11.8399C122.198 11.8919 122.109 11.9232 122.016 11.9336C121.922 11.944 121.823 11.9597 121.719 11.9805C121.625 11.9909 121.536 12.0117 121.453 12.043C121.37 12.0742 121.307 12.1315 121.266 12.2149C121.161 12.1107 121.047 12.0222 120.922 11.9492C120.797 11.8763 120.672 11.7982 120.547 11.7149C120.443 11.7461 120.339 11.7878 120.234 11.8399C120.13 11.8919 120.026 11.918 119.922 11.918C119.849 11.918 119.776 11.8919 119.703 11.8399C119.62 11.9024 119.521 11.9544 119.406 11.9961C119.302 12.0274 119.188 12.0586 119.062 12.0899C118.948 12.1211 118.839 12.1628 118.734 12.2149C118.641 12.2669 118.573 12.3451 118.531 12.4492C118.51 12.3972 118.458 12.3815 118.375 12.4024C118.302 12.4232 118.26 12.3972 118.25 12.3242C117.917 12.4388 117.578 12.5378 117.234 12.6211C116.891 12.7044 116.547 12.793 116.203 12.8867C115.859 12.9805 115.521 13.0847 115.188 13.1992C114.854 13.3138 114.531 13.4544 114.219 13.6211C114.208 13.6315 114.203 13.6472 114.203 13.668C114.203 13.7722 114.219 13.8711 114.25 13.9649C114.281 14.0586 114.307 14.1472 114.328 14.2305C114.141 14.8659 114.016 15.5117 113.953 16.168C113.891 16.8242 113.807 17.4701 113.703 18.1055V18.168C113.703 18.2201 113.724 18.2617 113.766 18.293C113.807 18.3138 113.828 18.3555 113.828 18.418L113.812 18.4492C113.76 18.4805 113.724 18.5274 113.703 18.5899C113.682 18.6419 113.672 18.6992 113.672 18.7617C113.672 18.8034 113.682 18.8659 113.703 18.9492C113.526 19.543 113.406 20.1472 113.344 20.7617C113.292 21.3763 113.224 21.9909 113.141 22.6055L113 23.6367C112.979 23.6992 112.958 23.7617 112.938 23.8242C112.927 23.8763 112.922 23.9336 112.922 23.9961C112.922 24.3294 112.943 24.6576 112.984 24.9805C113.036 25.293 113.052 25.6159 113.031 25.9492C113.125 26.0951 113.172 26.2357 113.172 26.3711C113.172 26.4232 113.167 26.4753 113.156 26.5274C113.156 26.5794 113.151 26.6315 113.141 26.6836C113.276 26.819 113.432 26.9128 113.609 26.9649C113.797 27.0274 113.964 27.1211 114.109 27.2461V27.3086C114.109 27.4128 114.094 27.5117 114.062 27.6055C114.031 27.7097 114.005 27.8138 113.984 27.918C113.964 28.0013 113.938 28.1211 113.906 28.2774C113.885 28.4336 113.854 28.5378 113.812 28.5899C113.76 28.6628 113.682 28.7253 113.578 28.7774C113.484 28.8399 113.391 28.8711 113.297 28.8711C113.266 28.8711 113.219 28.8555 113.156 28.8242C113.104 28.793 113.062 28.7669 113.031 28.7461C112.979 28.7461 112.911 28.7722 112.828 28.8242C112.745 28.8763 112.661 28.9024 112.578 28.9024C112.536 28.9024 112.5 28.8972 112.469 28.8867C112.438 28.8867 112.401 28.8763 112.359 28.8555C112.318 28.7513 112.255 28.6576 112.172 28.5742C112.099 28.5013 112.01 28.4284 111.906 28.3555C111.917 28.2097 111.891 28.1003 111.828 28.0274C111.766 27.9544 111.703 27.8607 111.641 27.7461C111.62 27.6003 111.599 27.4336 111.578 27.2461C111.568 27.0586 111.49 26.9232 111.344 26.8399C111.396 26.7669 111.422 26.668 111.422 26.543C111.422 26.4909 111.411 26.4336 111.391 26.3711C111.38 26.3086 111.349 26.2617 111.297 26.2305V26.1992C111.286 26.1472 111.302 26.1107 111.344 26.0899C111.396 26.0586 111.422 26.0169 111.422 25.9649V25.9024C111.349 25.569 111.312 25.2201 111.312 24.8555C111.312 24.5117 111.323 24.1732 111.344 23.8399C111.365 23.4961 111.365 23.1524 111.344 22.8086C111.406 22.7565 111.453 22.6732 111.484 22.5586C111.526 22.444 111.557 22.319 111.578 22.1836C111.599 22.0482 111.609 21.918 111.609 21.793C111.62 21.6576 111.63 21.5482 111.641 21.4649C111.693 20.8711 111.776 20.2878 111.891 19.7149C112.005 19.1315 112.073 18.5378 112.094 17.9336C112.146 17.8503 112.177 17.7409 112.188 17.6055C112.198 17.4701 112.203 17.3294 112.203 17.1836C112.203 17.0274 112.214 16.8763 112.234 16.7305C112.255 16.5847 112.297 16.4597 112.359 16.3555C112.359 16.0638 112.385 15.7722 112.438 15.4805C112.49 15.1784 112.516 14.8763 112.516 14.5742C112.516 14.4284 112.5 14.2774 112.469 14.1211C112.365 14.0794 112.271 14.0586 112.188 14.0586C112.073 14.0586 111.953 14.0847 111.828 14.1367C111.714 14.1784 111.63 14.2461 111.578 14.3399C111.349 14.3503 111.125 14.3867 110.906 14.4492C110.688 14.5117 110.469 14.543 110.25 14.543H110.094C110.052 14.543 110.005 14.5378 109.953 14.5274C109.88 14.5586 109.802 14.5847 109.719 14.6055C109.646 14.6263 109.615 14.6888 109.625 14.793C109.302 14.8242 108.984 14.8919 108.672 14.9961C108.37 15.1003 108.068 15.2149 107.766 15.3399C107.464 15.4544 107.161 15.5638 106.859 15.668C106.547 15.7722 106.229 15.8399 105.906 15.8711C105.792 15.9232 105.719 16.0326 105.688 16.1992C105.458 16.1784 105.266 16.1211 105.109 16.0274C104.953 15.9336 104.771 15.8451 104.562 15.7617C104.5 15.543 104.469 15.3347 104.469 15.1367C104.469 14.8763 104.521 14.6263 104.625 14.3867C104.729 14.1472 104.896 13.9701 105.125 13.8555C105.177 13.8659 105.224 13.8763 105.266 13.8867C105.307 13.8867 105.354 13.8867 105.406 13.8867C105.573 13.8867 105.74 13.8555 105.906 13.793C106.073 13.7305 106.245 13.6992 106.422 13.6992C106.474 13.6992 106.531 13.7149 106.594 13.7461C106.667 13.7044 106.76 13.6732 106.875 13.6524C106.979 13.6211 107.078 13.5951 107.172 13.5742C107.276 13.543 107.37 13.5013 107.453 13.4492C107.536 13.3972 107.589 13.3242 107.609 13.2305C107.661 13.2722 107.719 13.2982 107.781 13.3086C107.844 13.319 107.906 13.3242 107.969 13.3242C108.104 13.3242 108.245 13.2982 108.391 13.2461C108.536 13.194 108.651 13.1107 108.734 12.9961C108.807 13.0794 108.911 13.1211 109.047 13.1211C109.193 13.1211 109.333 13.0847 109.469 13.0117C109.615 12.9284 109.755 12.8867 109.891 12.8867C109.995 12.8867 110.073 12.9232 110.125 12.9961C110.24 12.9024 110.375 12.8294 110.531 12.7774C110.688 12.7253 110.844 12.6784 111 12.6367C111.167 12.5951 111.318 12.5482 111.453 12.4961C111.599 12.444 111.714 12.3711 111.797 12.2774C111.849 12.2878 111.932 12.293 112.047 12.293C112.224 12.293 112.391 12.2722 112.547 12.2305C112.714 12.1784 112.88 12.1315 113.047 12.0899L113.375 12.0586C113.458 12.0482 113.531 12.0222 113.594 11.9805C113.667 11.9388 113.74 11.9024 113.812 11.8711C113.885 11.8399 113.958 11.8138 114.031 11.793C114.115 11.7722 114.214 11.7669 114.328 11.7774C114.578 11.6419 114.844 11.5378 115.125 11.4649C115.406 11.3919 115.693 11.3294 115.984 11.2774C116.276 11.2149 116.562 11.1472 116.844 11.0742C117.125 10.9909 117.391 10.8711 117.641 10.7149H117.688C117.896 10.7149 118.099 10.6784 118.297 10.6055C118.505 10.5326 118.698 10.4336 118.875 10.3086C118.906 10.319 118.938 10.3242 118.969 10.3242H119.078C119.37 10.3242 119.651 10.2826 119.922 10.1992C120.203 10.1159 120.495 10.0742 120.797 10.0742C120.974 10.0742 121.115 10.1003 121.219 10.1524C121.323 10.194 121.417 10.2513 121.5 10.3242C121.583 10.3867 121.672 10.4492 121.766 10.5117C121.859 10.5742 121.979 10.6211 122.125 10.6524C122.219 10.8294 122.266 11.0222 122.266 11.2305C122.266 11.4284 122.271 11.6315 122.281 11.8399Z" fill="white"/>
</svg>
