<svg id="Layer_1" data-name="Layer 1" xmlns="http://www.w3.org/2000/svg" viewBox="0 0 225.14 70"><defs><style>.cls-1{fill:#fff;}</style></defs><title>Artboard 1</title><path class="cls-1" d="M28.81,14.72a1.61,1.61,0,0,1-.06.44,1.12,1.12,0,0,0,0,.44,3,3,0,0,0-1.27,1.47,2.05,2.05,0,0,0-.76.64,8.58,8.58,0,0,0-.56.83c-.15.27-.32.54-.5.82A2.17,2.17,0,0,1,25,20v.65q-.24-.06-.33.06a.31.31,0,0,1-.2.14c-.39.75-.79,1.49-1.2,2.24a8.78,8.78,0,0,1-1.53,2,12,12,0,0,1-.53,1.21c-.2.39-.4.78-.62,1.17s-.42.79-.61,1.18a6.09,6.09,0,0,0-.47,1.2,6.24,6.24,0,0,0-1,1.38c-.28.49-.54,1-.79,1.5s-.5,1-.8,1.47a6.21,6.21,0,0,1-1,1.35.7.7,0,0,1-.08.44.66.66,0,0,0-.12.38,2.64,2.64,0,0,0,.64,1.53,18.6,18.6,0,0,0,1.59,1.67c.61.55,1.21,1.06,1.82,1.53l1.41,1.08a14.44,14.44,0,0,0,1.35-.64,3.07,3.07,0,0,1,1.41-.41,1.67,1.67,0,0,1,.65.55,1.21,1.21,0,0,1,.26.77,2.32,2.32,0,0,1-.41,1.29,4.46,4.46,0,0,1-.91,1c-.31.06-.63.11-.94.15a7.4,7.4,0,0,1-.94,0,10,10,0,0,1-1.88-.17l-1.82-.44a5.94,5.94,0,0,0-1.12-1.12,4.87,4.87,0,0,0-1.32-.79,1.42,1.42,0,0,0-.17-.59,2,2,0,0,0-.36-.41A1.86,1.86,0,0,0,14.5,41L14,40.68a1.41,1.41,0,0,0-.52.26,1.94,1.94,0,0,1-.53.23,10,10,0,0,1-1.5,2.53,1,1,0,0,1-.21.82,4.3,4.3,0,0,1-.61.56,4.44,4.44,0,0,1-.56,1.53,9.16,9.16,0,0,1-.91,1.32l0,.23a.29.29,0,0,1-.09.21.43.43,0,0,0,0,.29,5.06,5.06,0,0,0-.73,1.21c-.2.47-.38,1-.56,1.44l-.47,1.46a12.39,12.39,0,0,1-.47,1.38,1.52,1.52,0,0,1,.12.62,3.57,3.57,0,0,1-.06.65,3.47,3.47,0,0,0-.06.64,1.35,1.35,0,0,0,.09.5.87.87,0,0,0,.32.44,1.33,1.33,0,0,1,.91-.32,2.11,2.11,0,0,1,.62.09A2.78,2.78,0,0,1,9.4,57a1.09,1.09,0,0,1,.11.41.61.61,0,0,1-.11.36,1.41,1.41,0,0,1-.24.32,2.78,2.78,0,0,1-.26.32.73.73,0,0,0-.15.35A10.51,10.51,0,0,0,7.4,59a5.9,5.9,0,0,0-1.26.44,1.68,1.68,0,0,1-.65-.26,1.94,1.94,0,0,0-.62-.27,3.76,3.76,0,0,1-.58-1.08,6.28,6.28,0,0,0-.59-1.12,5.67,5.67,0,0,1,.17-1.35q.18-.64.39-1.29c.11-.43.22-.87.32-1.32a4.25,4.25,0,0,0,.09-1.33,1.07,1.07,0,0,0,.47-.47,2.53,2.53,0,0,0,.26-.67c.08-.24.15-.48.21-.74a4.83,4.83,0,0,1,.2-.64,1.2,1.2,0,0,0,.47-.53,1.59,1.59,0,0,1,.5-.5.27.27,0,0,0,0-.12v-.08l-.06-.09s0,0,0-.06a.5.5,0,0,0,0-.12.18.18,0,0,1,0-.09L7,46.9a4.75,4.75,0,0,0,.61-1c.14-.31.3-.66.47-1.06a8.53,8.53,0,0,1,.59-1.11c.24-.37.46-.74.68-1.12q.76-1.38,1.47-2.73c.48-.92,1-1.83,1.55-2.73a1.64,1.64,0,0,1-.38-.41c-.1-.18-.2-.35-.29-.53a4.82,4.82,0,0,0-.27-.5A1.32,1.32,0,0,0,11,35.3a30.41,30.41,0,0,0-1.41-3.14l-1.5-3.08c-.17-.38-.34-.75-.5-1.12a6.34,6.34,0,0,0-.49-1.09c-.06-.09-.13-.13-.21-.11a.19.19,0,0,1-.21-.09c-.15-.45-.29-.85-.41-1.2l-.44-1.33a1.28,1.28,0,0,1,.53-.85,1.83,1.83,0,0,1,1-.26,3.63,3.63,0,0,1,.94.14,6.57,6.57,0,0,1,.5.65,4,4,0,0,0,.56.62v.76c.56,1.16,1.09,2.31,1.58,3.47S12,31,12.54,32.13a1,1,0,0,1,.53.27,4.15,4.15,0,0,1,.38.44c.12.15.23.3.35.44a.9.9,0,0,0,.56.23,1.48,1.48,0,0,0,.35-.38l.47-.73a6.47,6.47,0,0,0,.44-.8,1.37,1.37,0,0,0,.21-.53v-.2a31.33,31.33,0,0,0,3.26-5.67,1.36,1.36,0,0,0,.47-.38c.11-.18.22-.35.32-.53s.23-.38.35-.56a1.84,1.84,0,0,1,.44-.44,4.09,4.09,0,0,1,.47-1.14c.22-.36.44-.71.68-1.06s.46-.7.67-1.06a5,5,0,0,0,.5-1.17,1,1,0,0,0,.5-.38,3.71,3.71,0,0,0,.35-.56,5.15,5.15,0,0,1,.33-.56.94.94,0,0,1,.49-.38,3.24,3.24,0,0,1,.8-1.59A3.81,3.81,0,0,1,27,14.45l.12-.32a1.91,1.91,0,0,0,.41.12,4.68,4.68,0,0,1,.56.09,1.68,1.68,0,0,1,.5.11Q28.81,14.54,28.81,14.72Zm25.66,22v.21a.51.51,0,0,1,0,.17,2.57,2.57,0,0,1-.79.94,2.43,2.43,0,0,1-1.88.24,3.89,3.89,0,0,1-.56-.33l-1.2.12a15.48,15.48,0,0,0-2.65.41,2.76,2.76,0,0,0-1,.53,34.48,34.48,0,0,0-.3,4c0,1.34,0,2.68-.06,4a5.56,5.56,0,0,1,.33,1.35c0,.51.09,1,.11,1.38a3.69,3.69,0,0,1,.33.7l.23.77c.08.25.17.5.27.73a2.57,2.57,0,0,0,.44.65,2.54,2.54,0,0,1,.41,0l.41.11V53a.8.8,0,0,0,.26.65l.59.44a2.25,2.25,0,0,1,.09.61,1.91,1.91,0,0,1-.24.94,1.14,1.14,0,0,1-.7.62,1.73,1.73,0,0,1-.56-.09,2.53,2.53,0,0,0-.56-.06,1.85,1.85,0,0,0-.44.06.76.76,0,0,1-.26-.18l-.21-.17a1.1,1.1,0,0,0-.26-.15.57.57,0,0,0-.33,0,2,2,0,0,0-.47-.76.84.84,0,0,0-.79-.29,1.6,1.6,0,0,0,0-.36,1.76,1.76,0,0,0-.17-.76,1.23,1.23,0,0,0-.47-.56q-.15-.68-.27-1.5a3.45,3.45,0,0,0-.5-1.38,8.07,8.07,0,0,0-.17-1.64q-.18-.76-.33-1.59a4.21,4.21,0,0,0,.12-1.05c0-.28,0-.54,0-.8s0-.53,0-.79a5.06,5.06,0,0,1,.06-.79,2.1,2.1,0,0,1,.29-.79A2.18,2.18,0,0,1,43,42a3.57,3.57,0,0,1-.06-.65,7.77,7.77,0,0,1,.06-1l.12-.94a.51.51,0,0,0-.21,0,1,1,0,0,0-.5.12l-.44.21-.26,0H41.4a3,3,0,0,0-.88.14,1.73,1.73,0,0,0-.73.44,9.71,9.71,0,0,0-2,.21c-.66.12-1.33.26-2,.44s-1.29.37-1.93.59-1.3.37-1.94.53a19.65,19.65,0,0,0-.35,2.32,22.4,22.4,0,0,0-.12,2.35v.7a4.32,4.32,0,0,0,.06.73,1.1,1.1,0,0,0,.14.42.71.71,0,0,1,.15.44.53.53,0,0,1-.09.32,1.93,1.93,0,0,0,.62.62,2.42,2.42,0,0,1,.76-.15,2.29,2.29,0,0,1,1,.23,3,3,0,0,0,1,.36,3.67,3.67,0,0,1-.35.79,2.3,2.3,0,0,0-.3.88.49.49,0,0,1-.23.06H34a.24.24,0,0,0-.14.12.9.9,0,0,0,0,.35,2.53,2.53,0,0,1-.82.26,5.8,5.8,0,0,1-.85.12c-.27,0-.56,0-.85,0l-.85,0a.44.44,0,0,0-.09-.29.45.45,0,0,0-.18-.15L30,52.48a.8.8,0,0,1-.21-.15,1.53,1.53,0,0,1-.38-.55c-.08-.22-.16-.45-.26-.71s-.17-.47-.27-.7a2.9,2.9,0,0,0-.35-.65q-.06-.64-.09-1.26c0-.41,0-.83,0-1.27q0-1.2.09-2.34c.06-.79.11-1.59.15-2.41A.75.75,0,0,0,28,42.2a1.74,1.74,0,0,1-.64-.06,4.12,4.12,0,0,1-.59-1A2.85,2.85,0,0,1,26.57,40a2.32,2.32,0,0,1,.09-.62l.59-.17a.48.48,0,0,0,.35-.47,1,1,0,0,0,.5.11,2,2,0,0,0,.59-.08,5.66,5.66,0,0,1,.59-.15c.07-.31.13-.62.17-.91a3.14,3.14,0,0,0,0-1A3.44,3.44,0,0,0,30,35.42a10.62,10.62,0,0,0,.2-1.41V33.6a2.73,2.73,0,0,1,0-.41c0-.22.1-.46.18-.74s.15-.52.21-.76a6,6,0,0,0,.17-1.06,8.47,8.47,0,0,0,.06-1v-.12a.21.21,0,0,0-.12-.21.26.26,0,0,1-.11-.23l0-.06c.07-.63.16-1.24.26-1.85a14.74,14.74,0,0,1,.47-1.85,4.55,4.55,0,0,1-.24-1.53,6.41,6.41,0,0,1,.36-2.14,2.54,2.54,0,0,1-.18-.91c0-.24,0-.47,0-.71a2.74,2.74,0,0,0,0-.7,1.25,1.25,0,0,0,.47-.41,1.78,1.78,0,0,1,.47-.44A1.85,1.85,0,0,1,33.8,19a2.05,2.05,0,0,1,.61,1.5A2.36,2.36,0,0,1,34,21.82a6.32,6.32,0,0,1,.12,1.3A15.94,15.94,0,0,1,34,25.29a12.39,12.39,0,0,0-.09,2.2,2.72,2.72,0,0,0-.17,1,5.25,5.25,0,0,1,0,1,7.19,7.19,0,0,1-.18.85,3.91,3.91,0,0,0-.14.82l-.06,1.35a5.43,5.43,0,0,1-.15,1.29,1.33,1.33,0,0,1-.18.42,1.69,1.69,0,0,0-.14.35,5.28,5.28,0,0,0-.09,1.26,6.63,6.63,0,0,1,0,1.26,1.48,1.48,0,0,1-.12.41,1.61,1.61,0,0,0-.06.44,1,1,0,0,0,.06.3A46.13,46.13,0,0,0,38,37.45q2.64-.57,5.31-1a1.65,1.65,0,0,0,.21-.8,1.35,1.35,0,0,0-.09-.47,13.41,13.41,0,0,0,.44-1.93c.12-.67.22-1.33.29-2s.15-1.29.21-1.94.14-1.32.23-2l.18-1a9.61,9.61,0,0,1,.23-1l.12-.36a.68.68,0,0,0,.09-.32q0-.15-.18-.21c-.09,0-.14-.08-.14-.14s0-.06,0-.06.07,0,.08,0a1.42,1.42,0,0,0,.18-.56,5.68,5.68,0,0,0,0-.59,4.51,4.51,0,0,1,.09-.55,1.34,1.34,0,0,1,.23-.53,1.41,1.41,0,0,0-.11-.38.93.93,0,0,1-.09-.42s0,0,0-.05a2.15,2.15,0,0,0,.06-.44,3.38,3.38,0,0,0,0-.47.61.61,0,0,1,.32-.56,6,6,0,0,1-.21-1.09,11.17,11.17,0,0,1-.06-1.14,2.14,2.14,0,0,1,.36-1.27A1.41,1.41,0,0,1,47,15.77a1.89,1.89,0,0,1,.82.18,1.72,1.72,0,0,1,.68.5,5.78,5.78,0,0,1,.14,1.26,5.21,5.21,0,0,1,0,.8c0,.23,0,.49,0,.76a3.18,3.18,0,0,0,.06.62c0,.17.07.36.11.55a3.19,3.19,0,0,0-.38.91,7.14,7.14,0,0,0-.17,1c0,.35,0,.72-.06,1.09s0,.67,0,1a15.48,15.48,0,0,1-.3,1.91c-.11.62-.25,1.25-.41,1.88a2.16,2.16,0,0,1,.09.58,3.82,3.82,0,0,1-.15,1.06,2.61,2.61,0,0,0-.08,1A4.07,4.07,0,0,0,47,32c0,.36-.07.73-.09,1.12l-.06,1.15a4,4,0,0,1-.2,1.08.28.28,0,0,0,.2.18c.12,0,.16.08.12.23a4.52,4.52,0,0,1,1.44-.17h2.32a6.64,6.64,0,0,0,.88-.12l.88-.26a2.58,2.58,0,0,1,.91-.18,1.1,1.1,0,0,1,.94.44c0,.21.07.43.09.65S54.47,36.5,54.47,36.71Zm8.25,11.84a1.32,1.32,0,0,1-.32.85,8,8,0,0,0-.56.73,2.1,2.1,0,0,1-.79.24,4.39,4.39,0,0,0-.77.2.72.72,0,0,0-.32.21,1,1,0,0,1-.47-.21,1.58,1.58,0,0,0-.47-.2,3,3,0,0,0-.85-.15,1,1,0,0,1-.73-.29,3.55,3.55,0,0,1-.71-1.09,10.1,10.1,0,0,1-.44-1.44c-.1-.51-.18-1-.23-1.5S56,45,56,44.58a16.93,16.93,0,0,1,.11-1.88,13.63,13.63,0,0,1,.36-1.82V40.5a1.09,1.09,0,0,0,0-.26.57.57,0,0,0,0-.18.18.18,0,0,0-.09-.15,10.5,10.5,0,0,0,.56-2c.11-.69.2-1.37.26-2.06s.16-1.4.24-2.08a15.32,15.32,0,0,1,.41-2.06c0-.12,0-.24-.06-.38V31a4.34,4.34,0,0,1,.12-1,7.73,7.73,0,0,0,.14-1.09,1,1,0,0,0,0-.35,2.83,2.83,0,0,1,0-.41c0-.86,0-1.7.12-2.53a20.55,20.55,0,0,0,.15-2.49,6.73,6.73,0,0,0-.12-1.29,9.58,9.58,0,0,1-.09-1.3,4.8,4.8,0,0,1,0-.55,1.15,1.15,0,0,1,.18-.53A2.59,2.59,0,0,1,59.81,19a1.78,1.78,0,0,1,1.12.35.4.4,0,0,0,0,.17,1.12,1.12,0,0,0,0,.27A1.09,1.09,0,0,1,61,20v.12a.27.27,0,0,1,0,.12,2,2,0,0,1,.26.76,3.48,3.48,0,0,1,.09.79c0,.26,0,.51,0,.77s0,.48,0,.73v1.06c0,.35,0,.7,0,1.06,0,.94,0,1.87-.14,2.79S61,30,60.93,31a14.14,14.14,0,0,1-.32,2.35,17.75,17.75,0,0,0-.33,2.32,3.55,3.55,0,0,0,0,.46,3.38,3.38,0,0,1,0,.47A3.61,3.61,0,0,1,60,37.92a3.53,3.53,0,0,0-.26,1.38,1.45,1.45,0,0,0,.11.61A11.31,11.31,0,0,0,59.55,41q-.12.64-.24,1.35c-.05.45-.1.9-.14,1.35s-.06.81-.06,1.14a6,6,0,0,0,.18,1.44,3.9,3.9,0,0,0,.58,1.3,2.9,2.9,0,0,0,.71.08c.27,0,.55,0,.82,0a3,3,0,0,1,.76.15.88.88,0,0,1,.53.47.27.27,0,0,1,0,.12Zm37.44-6.46a1.27,1.27,0,0,1-.21.7.88.88,0,0,0-.11.7.87.87,0,0,1-.33.33c-.11.08-.15.22-.11.44a5,5,0,0,0-1.15.82,12.33,12.33,0,0,1-1.08.91,3.58,3.58,0,0,1-.62.38,4.11,4.11,0,0,0-.59.3l-.73.47-1,.52a4,4,0,0,0-.91.68,3.55,3.55,0,0,0-1.26.32c-.43.22-.85.4-1.24.56a1.91,1.91,0,0,1-.47.12,3.36,3.36,0,0,0-.47.17l-.47.21a8.59,8.59,0,0,1-1,.41,2.54,2.54,0,0,1-1,.24.87.87,0,0,0-.44.41,15,15,0,0,1-2,.5,9.88,9.88,0,0,0-2,.55,4.79,4.79,0,0,0-.67.39,1,1,0,0,1-.71.23,1,1,0,0,0-.12.35,1.86,1.86,0,0,1-.08.41h-.09c-.08,0-.12,0-.12-.11s0-.12-.09-.12A.14.14,0,0,0,81,53l-.74.15a5.23,5.23,0,0,1-.73.05c-.16,0-.41,0-.77-.05A3.36,3.36,0,0,1,78,53a.65.65,0,0,1-.29-.32l-.24-.5-.18-.56a2.81,2.81,0,0,0-.11-.44,1.14,1.14,0,0,1,.29-.53,1.28,1.28,0,0,0,.32-.53,4.51,4.51,0,0,0,.53-.09,1.59,1.59,0,0,1,.53,0l1.82-.52c.63-.16,1.25-.33,1.85-.5s1.21-.38,1.79-.59A12,12,0,0,0,86,47.61h.61a6,6,0,0,1,1.18-.5,2.31,2.31,0,0,0,1-.68,17.79,17.79,0,0,0,2-.56,4,4,0,0,0,1.76-1.11,2.7,2.7,0,0,0,.77-.21c.21-.12.42-.23.61-.35l.59-.38a2.39,2.39,0,0,1,.68-.33c.15-.15.3-.32.44-.49a1.52,1.52,0,0,1,.5-.44,1,1,0,0,0-.47-.71,3.08,3.08,0,0,1-.68-.56h-.65a6,6,0,0,0-1.64-.7c-.57-.18-1.14-.36-1.7-.56A.33.33,0,0,0,91,40c-.14,0-.23,0-.26.15s-.1.13-.24.11a1.31,1.31,0,0,0-.56-.2A3,3,0,0,0,89.3,40a5.79,5.79,0,0,0-.83.06c-.25,0-.52,0-.79,0a2.83,2.83,0,0,1-.41,0,1.14,1.14,0,0,1-.41-.15h-.38c-.41,0-.83,0-1.24.06s-.78,0-1.17,0h-.62l-.59-.09a4.51,4.51,0,0,1-1.32.41c-.47.08-1,.14-1.46.18l-1.47.12a12.47,12.47,0,0,0-1.41.14l-.36,0a1.37,1.37,0,0,0-.29,0,1.83,1.83,0,0,0-.32,0l-.3,0a2,2,0,0,0-.93-.58,4.24,4.24,0,0,0-1.06-.27,3.73,3.73,0,0,1-.62-1,5.06,5.06,0,0,1-.23-1.17h.11q.21,0,.18-.21a.49.49,0,0,1,.15-.35.68.68,0,0,1,.38-.23l.5-.18a3.55,3.55,0,0,0,.44-.21.83.83,0,0,0,.35-.44h.38l.24,0a.3.3,0,0,1,.23.09.93.93,0,0,1,.3-.2l.32-.18a1.08,1.08,0,0,0,.29-.21.54.54,0,0,0,.15-.35.14.14,0,0,0,.15.09.36.36,0,0,0,.2-.06.41.41,0,0,1,.27,0,.57.57,0,0,1,.5-.44,1.55,1.55,0,0,0,.64-.2,2.16,2.16,0,0,0,.38-.27,3,3,0,0,1,.39-.32l1.76-1.35,2.7-2.06c.9-.68,1.82-1.32,2.76-1.91a.62.62,0,0,1,.17-.26l.24-.18a.76.76,0,0,0,.18-.23.53.53,0,0,0,0-.35,1.09,1.09,0,0,0,.62-.33,2.8,2.8,0,0,0,.41-.5l.35-.55a1.25,1.25,0,0,1,.53-.44.91.91,0,0,1,0-.27,3.71,3.71,0,0,1,0-.47.86.86,0,0,1,.24-.41,1.64,1.64,0,0,0-.91-.88c-.43-.2-.84-.36-1.24-.5h-.08a.17.17,0,0,0-.18.15c0,.08,0,.13-.15.17a4.23,4.23,0,0,0-1-.11,9.23,9.23,0,0,0-1.18.08,4.33,4.33,0,0,1-1.14,0,2.25,2.25,0,0,1-.21.24.9.9,0,0,1-.23.2,6.51,6.51,0,0,0-1.24.18l-1.23.29-.68.15a.38.38,0,0,0-.2.21,1.35,1.35,0,0,0-.09.32.27.27,0,0,1-.23-.15c0-.08-.09-.13-.21-.17a7,7,0,0,1-1.47.67,4,4,0,0,0-1.38.82.76.76,0,0,0-.59-.23,1.56,1.56,0,0,0-.7.2.92.92,0,0,0-.47.53,2.44,2.44,0,0,0-.44-.06.89.89,0,0,0-.56.18,4,4,0,0,0-.41.41,5.76,5.76,0,0,1-.44.41,1,1,0,0,1-.59.24v.32a1.66,1.66,0,0,1,0,.32,23.54,23.54,0,0,1-.15,2.65A25.06,25.06,0,0,0,72.09,34a5.83,5.83,0,0,0,0,.59,5.09,5.09,0,0,1,0,.58,1.24,1.24,0,0,1-.15.39l-.18.44a1.42,1.42,0,0,1,.09.64,1.35,1.35,0,0,0,.15.62.81.81,0,0,0-.27.64v.36a2,2,0,0,1,0,.35V39c0,.39-.09.79-.11,1.21s0,.78,0,1.17v.91q0,.62.09,1.41c0,.51.09,1,.17,1.59s.18,1.05.29,1.52a4.52,4.52,0,0,0,.5,1.12.87.87,0,0,0,.71.44l.2,0q.15,0,.15-.15a.34.34,0,0,0-.06-.2.66.66,0,0,1,0-.21l0-.06a1.52,1.52,0,0,0,.5.15l.59.06a4.68,4.68,0,0,1,.56.09,1.1,1.1,0,0,1,.47.32,1.08,1.08,0,0,0-.12.5,1.25,1.25,0,0,0,.18.65,2.35,2.35,0,0,1,.23.64c-.37.12-.71.25-1,.38a6.35,6.35,0,0,1-.88.41,6.12,6.12,0,0,1-.94.36,5.1,5.1,0,0,1-1.14.23c-.28-.17-.51-.33-.71-.47a1.67,1.67,0,0,0-.79-.26,9.75,9.75,0,0,1-1.26-2.32,16.28,16.28,0,0,1-.8-2.65c-.17-.92-.3-1.84-.38-2.76s-.09-1.82-.09-2.64,0-1.79.09-2.67.18-1.8.3-2.7c0-.28.07-.55.11-.82s.08-.58.12-.86a1.35,1.35,0,0,0,.09-.32,1.28,1.28,0,0,0,.06-.35c0-.33,0-.67,0-1s0-.66,0-1a12.83,12.83,0,0,1,.09-1.5l.09-.38a1.34,1.34,0,0,0,.08-.41.4.4,0,0,0-.11-.32.72.72,0,0,1-.21-.3c.06-.19.11-.38.15-.55a3,3,0,0,0,.06-.59,2.1,2.1,0,0,0-.21-1,8,8,0,0,1,.44-1.5,2.1,2.1,0,0,1,1-1.11c.39,0,.78.06,1.17.11a1.94,1.94,0,0,1,1.06.5,1.17,1.17,0,0,1,.47-.14l.56-.06a3.89,3.89,0,0,0,.53-.09,1,1,0,0,0,.41-.32Q75,23,75.7,22.76a6.4,6.4,0,0,0,1.17-.52h.65A1.26,1.26,0,0,1,78,22l.56-.15.53-.17a.83.83,0,0,0,.41-.3h.12a3.24,3.24,0,0,0,1.32-.29c.43-.2.85-.37,1.26-.53l.44-.2a1.36,1.36,0,0,1,.44-.15,5.66,5.66,0,0,1,.82-.06,5.59,5.59,0,0,0,.82-.12c.63-.1,1.25-.2,1.85-.32a8.67,8.67,0,0,1,1.88-.21,5.15,5.15,0,0,1,.59,0l.62,0a.41.41,0,0,0,.14.21l.21.12a.48.48,0,0,1,.21.17.33.33,0,0,1,.05.27.21.21,0,0,0,.12.05.17.17,0,0,0,.15-.08.32.32,0,0,1,.23-.09h.15l.74.79a3.09,3.09,0,0,0,.93.59c.16.59.35,1.16.56,1.73a5,5,0,0,1,.33,1.82,3.78,3.78,0,0,1-.18,1.15,1.2,1.2,0,0,0-.59.64c-.12.3-.22.58-.32.85A4.25,4.25,0,0,0,91,28.9c-.37.45-.75.9-1.15,1.35h-.47a.2.2,0,0,0-.17.09l-.27.29a5.64,5.64,0,0,1-.58.47,1.39,1.39,0,0,0-.44.62,15,15,0,0,0-1.77,1.12c-.54.41-1.07.84-1.58,1.29a6.05,6.05,0,0,0-.65.61,4.58,4.58,0,0,1-.64.56,2.17,2.17,0,0,1-.42.27,1.68,1.68,0,0,0-.38.23,7,7,0,0,0-.7.62c-.22.19-.44.38-.68.56.88,0,1.78-.06,2.68-.06l2.67-.06q.67,0,1.32,0t1.32-.06a.37.37,0,0,1,.21.06l.2.06c.33.06.63.13.88.2.94.18,1.88.34,2.82.47a15.46,15.46,0,0,1,2.76.68,1.59,1.59,0,0,1,.56.32.83.83,0,0,0,.7.09,3.62,3.62,0,0,0,.89.65c.33.15.66.29,1,.41.26.39.49.76.71,1.11A2.28,2.28,0,0,1,100.16,42.09Zm10,6.46a1.27,1.27,0,0,1-.32.85,8,8,0,0,0-.56.73,2.1,2.1,0,0,1-.79.24,4.09,4.09,0,0,0-.76.2.69.69,0,0,0-.33.21,1,1,0,0,1-.47-.21,1.48,1.48,0,0,0-.47-.2,3,3,0,0,0-.85-.15,1,1,0,0,1-.73-.29,3.55,3.55,0,0,1-.71-1.09,11.57,11.57,0,0,1-.44-1.44c-.1-.51-.17-1-.23-1.5s-.06-.95-.06-1.32a14.83,14.83,0,0,1,.12-1.88,12.19,12.19,0,0,1,.35-1.82V40.5a1.09,1.09,0,0,0,0-.26.57.57,0,0,0,0-.18.18.18,0,0,0-.09-.15,9.81,9.81,0,0,0,.56-2c.12-.69.2-1.37.26-2.06s.16-1.4.24-2.08a17.06,17.06,0,0,1,.41-2.06c0-.12,0-.24-.06-.38V31a4.34,4.34,0,0,1,.12-1,6.5,6.5,0,0,0,.14-1.09,1,1,0,0,0,0-.35,2.83,2.83,0,0,1,0-.41c0-.86,0-1.7.12-2.53a20.55,20.55,0,0,0,.15-2.49,6.73,6.73,0,0,0-.12-1.29,9.58,9.58,0,0,1-.09-1.3,4.8,4.8,0,0,1,0-.55,1.15,1.15,0,0,1,.18-.53A2.6,2.6,0,0,1,107.3,19a1.75,1.75,0,0,1,1.11.35.4.4,0,0,0,0,.17,1.12,1.12,0,0,0,0,.27,1.09,1.09,0,0,1,0,.26v.12a.27.27,0,0,1,0,.12,2,2,0,0,1,.27.76,3.47,3.47,0,0,1,.08.79c0,.26,0,.51,0,.77s0,.48,0,.73v1.06c0,.35,0,.7,0,1.06a25.8,25.8,0,0,1-.15,2.79q-.12,1.35-.18,2.76a13.16,13.16,0,0,1-.32,2.35,16.19,16.19,0,0,0-.32,2.32,3.55,3.55,0,0,0,0,.46,3.38,3.38,0,0,1,0,.47,3.62,3.62,0,0,1-.27,1.36,3.72,3.72,0,0,0-.26,1.38,1.44,1.44,0,0,0,.12.61A9,9,0,0,0,107,41c-.08.43-.15.88-.23,1.35s-.11.9-.15,1.35-.06.81-.06,1.14a6,6,0,0,0,.18,1.44,3.92,3.92,0,0,0,.59,1.3,2.81,2.81,0,0,0,.7.08c.27,0,.55,0,.82,0a3.09,3.09,0,0,1,.77.15.86.86,0,0,1,.52.47.27.27,0,0,1,0,.12Zm31.07-29.46a1.16,1.16,0,0,1-.5.18l-.56.09a2.78,2.78,0,0,0-.5.11.66.66,0,0,0-.35.33,3.07,3.07,0,0,0-.64-.5l-.71-.44a5.5,5.5,0,0,0-.59.23,1.25,1.25,0,0,1-.58.15.67.67,0,0,1-.41-.15,2.29,2.29,0,0,1-.56.3l-.65.17a3.22,3.22,0,0,0-.61.24.84.84,0,0,0-.39.44c0-.1-.13-.13-.29-.09s-.22,0-.24-.15c-.62.22-1.26.4-1.9.56s-1.3.32-1.94.5-1.28.37-1.91.59a12.21,12.21,0,0,0-1.82.79.12.12,0,0,0,0,.09,1.77,1.77,0,0,0,.09.56c.06.17.1.34.14.5a19.51,19.51,0,0,0-.7,3.64c-.12,1.23-.27,2.44-.47,3.64V31a.28.28,0,0,0,.12.23c.08,0,.11.12.11.24l0,.05a.48.48,0,0,0-.21.27.83.83,0,0,0-.06.32,1.49,1.49,0,0,0,.06.35,19.07,19.07,0,0,0-.68,3.41c-.09,1.16-.22,2.31-.38,3.47l-.26,1.93-.12.36a1.51,1.51,0,0,0,0,.32,14.25,14.25,0,0,0,.12,1.85,7.83,7.83,0,0,1,.09,1.82,1.51,1.51,0,0,1,.26.79,1.53,1.53,0,0,1,0,.3,1.5,1.5,0,0,1,0,.29,2.17,2.17,0,0,0,.88.53,2.64,2.64,0,0,1,.94.53v.11a1.69,1.69,0,0,1-.09.56c0,.2-.1.39-.14.59s-.09.38-.15.67a1.43,1.43,0,0,1-.17.59,1.09,1.09,0,0,1-.45.35.91.91,0,0,1-.52.18.69.69,0,0,1-.27-.09l-.23-.14a.71.71,0,0,0-.38.14.89.89,0,0,1-.47.15.66.66,0,0,1-.21,0,.48.48,0,0,1-.21-.06,1.48,1.48,0,0,0-.35-.53,4.59,4.59,0,0,0-.5-.41.88.88,0,0,0-.14-.62,2.92,2.92,0,0,1-.36-.52c0-.28-.08-.59-.11-.94a.89.89,0,0,0-.44-.77,1,1,0,0,0,.14-.56,1,1,0,0,0-.06-.32.34.34,0,0,0-.17-.26v-.06a.17.17,0,0,1,.09-.21.27.27,0,0,0,.14-.23v-.12a9.68,9.68,0,0,1-.2-2c0-.64,0-1.28.06-1.91s0-1.29,0-1.93a1,1,0,0,0,.26-.47,3.69,3.69,0,0,0,.18-.71,6.25,6.25,0,0,0,0-.73c0-.26,0-.46.06-.62a32.56,32.56,0,0,1,.47-3.29,20.58,20.58,0,0,0,.39-3.34,1.52,1.52,0,0,0,.17-.62c0-.26,0-.52,0-.79a6,6,0,0,1,.06-.86,2.06,2.06,0,0,1,.23-.7,9.21,9.21,0,0,1,.15-1.65,9.68,9.68,0,0,0,.15-1.7,4.24,4.24,0,0,0-.09-.85,1.43,1.43,0,0,0-.53-.12,1.7,1.7,0,0,0-.67.15.83.83,0,0,0-.47.38,5.44,5.44,0,0,0-1.27.21,4.74,4.74,0,0,1-1.23.17h-.29l-.27,0a2.52,2.52,0,0,1-.44.15c-.14,0-.19.16-.17.35a8.61,8.61,0,0,0-1.8.38c-.56.2-1.13.42-1.7.65s-1.13.42-1.7.62a8.66,8.66,0,0,1-1.79.38.74.74,0,0,0-.41.62A2.5,2.5,0,0,1,109,27a8.28,8.28,0,0,0-1-.5,4.14,4.14,0,0,1-.17-1.17,3.42,3.42,0,0,1,.29-1.41,2,2,0,0,1,.94-1l.26.06h.27a2.65,2.65,0,0,0,.94-.18,2.87,2.87,0,0,1,1-.17.74.74,0,0,1,.32.09,1.64,1.64,0,0,1,.53-.18l.56-.15a2.05,2.05,0,0,0,.52-.23.65.65,0,0,0,.3-.41.77.77,0,0,0,.32.14l.35,0a2.59,2.59,0,0,0,.8-.14,1.34,1.34,0,0,0,.64-.47.76.76,0,0,0,.59.23,1.72,1.72,0,0,0,.79-.2,1.59,1.59,0,0,1,.79-.24.52.52,0,0,1,.45.21,2.33,2.33,0,0,1,.76-.42l.88-.26c.31-.08.6-.17.85-.26a1.69,1.69,0,0,0,.65-.41l.47,0a3.61,3.61,0,0,0,.94-.11c.31-.1.62-.19.94-.27l.61-.06a.87.87,0,0,0,.41-.14l.42-.21a2.86,2.86,0,0,1,.41-.15,1.93,1.93,0,0,1,.55,0,6.51,6.51,0,0,1,1.5-.59c.53-.14,1.07-.26,1.62-.35s1.08-.25,1.61-.39a5.94,5.94,0,0,0,1.5-.67h.09a3.2,3.2,0,0,0,1.14-.21,4.29,4.29,0,0,0,1.09-.55l.18,0h.2a5.27,5.27,0,0,0,1.59-.23,5.61,5.61,0,0,1,1.64-.24,1.74,1.74,0,0,1,.79.15,1.87,1.87,0,0,1,.53.32l.5.36a2.15,2.15,0,0,0,.68.26,2.37,2.37,0,0,1,.26,1.09Q141.24,18.51,141.27,19.09Z"/><rect x="131.78" y="8.54" width="90.21" height="56.42"/><path class="cls-1" d="M172.05,51.23a1,1,0,0,1-.41.7,2.61,2.61,0,0,0-.55.65H171a3,3,0,0,0-.59.06l-.56.14a1.48,1.48,0,0,0-.35-.09.26.26,0,0,1-.26-.2,1.48,1.48,0,0,1-.65.12,2.45,2.45,0,0,1-1.29-.38,4.55,4.55,0,0,0-1.24-.59,2.57,2.57,0,0,0-.44-.65l-.49-.53c-.16-.17-.32-.36-.47-.55a2.55,2.55,0,0,1-.39-.71c0-.12-.08-.19-.14-.21a1.19,1.19,0,0,0-.27,0,1,1,0,0,0-.09-.55c-.05-.16-.2-.26-.44-.3a1.53,1.53,0,0,0-.41-1.11,3.92,3.92,0,0,0-.35-.38,1.88,1.88,0,0,1-.29-.5l-.53-.09h-.53a7.13,7.13,0,0,0-2.73.53l-.32.14a2.1,2.1,0,0,1-.3.15h-.12s0,0-.08,0a.86.86,0,0,1-.39-.09,1.12,1.12,0,0,0-.38-.06l-.2,0a.76.76,0,0,1-.18.09,3.38,3.38,0,0,1-.82.18c-.8.15-1.66.27-2.56.35a7.37,7.37,0,0,0-2.43.62.5.5,0,0,0-.3.35,1.42,1.42,0,0,0,0,.5,1.58,1.58,0,0,0-.5.61c-.09.26-.19.52-.29.8s-.17.57-.26.85a2.19,2.19,0,0,1-.41.7,1,1,0,0,1,.08.39,1.56,1.56,0,0,1-.29.88,3.64,3.64,0,0,0-.44.85,7,7,0,0,0-.24.79,2.34,2.34,0,0,1-.26.73,1.42,1.42,0,0,1-.47.53,1.59,1.59,0,0,1-.88.21,1.85,1.85,0,0,1-.91-.21,1.77,1.77,0,0,1-.62-.53,3,3,0,0,1-.38-.76,5.71,5.71,0,0,1-.23-.88c.21-.43.42-.8.61-1.12a3.31,3.31,0,0,0,.44-1.2,2.4,2.4,0,0,0,.8-.94,3.34,3.34,0,0,0,.26-1.17,1.22,1.22,0,0,0,.47-.56,2.63,2.63,0,0,0,.15-.71L145.51,48a5.64,5.64,0,0,1-1.47-.3.27.27,0,0,1,0-.12V47.5a1.44,1.44,0,0,0-.18-.71,1.28,1.28,0,0,1-.17-.64v-.24a5.41,5.41,0,0,0,.44-.5,5.2,5.2,0,0,1,.38-.44,2.4,2.4,0,0,1,.47-.35,1.64,1.64,0,0,1,.67-.12,9.56,9.56,0,0,1,1.09.06,6.5,6.5,0,0,0,1.09.09,3.68,3.68,0,0,0,.79-.09c.43-.88.81-1.77,1.15-2.67a18.61,18.61,0,0,0,.76-2.79,4.33,4.33,0,0,0,.38-.68,4,4,0,0,0,.27-.85,5.37,5.37,0,0,0,.14-.85,5.91,5.91,0,0,0,.06-.79,2.1,2.1,0,0,0,.44-.94,10.65,10.65,0,0,0,.24-1.15c.06-.41.11-.81.17-1.2a3,3,0,0,1,.41-1v-.26a2.27,2.27,0,0,0-.08-.8.3.3,0,0,0,.17-.26.91.91,0,0,1,.12-.35,15.57,15.57,0,0,1,.29-2.65c.18-.88.33-1.76.44-2.64v-.09c0-.09,0-.14-.11-.14s-.09-.08-.09-.18a5.33,5.33,0,0,1,.06-.7,7.43,7.43,0,0,0,.11-.74,27.81,27.81,0,0,0,.18-3.14q0-1.32-.09-2.61c-.06-.86-.12-1.74-.17-2.62l.23-.35a3.24,3.24,0,0,0,.21-.35,2.9,2.9,0,0,0,.47-.24.91.91,0,0,1,.52-.14.33.33,0,0,1,.15,0h.12a.64.64,0,0,1,.26.32c.08.14.15.26.21.38a1,1,0,0,0,.29.29.67.67,0,0,0,.5.06c.1.55.37.84.82.85a7.44,7.44,0,0,0,.36.83,1.71,1.71,0,0,0,.61.64,1.42,1.42,0,0,0,0,.33,1.86,1.86,0,0,0,.18.79,3.44,3.44,0,0,0,.5.7v.06a.44.44,0,0,1-.24.44,1.76,1.76,0,0,1,.39.71c.07.27.14.56.2.85s.13.54.21.79a1.11,1.11,0,0,0,.47.59v.09a.15.15,0,0,1-.12.17q-.09,0-.09.18a7.15,7.15,0,0,1,.74,2.11,18.77,18.77,0,0,0,.52,2.21.59.59,0,0,0,.27.14.38.38,0,0,1,.26.15.45.45,0,0,0-.17.41.59.59,0,0,1-.15.44.7.7,0,0,1,.2.62.66.66,0,0,0,.24.56v.11a.37.37,0,0,1-.06.21.24.24,0,0,0-.06.18v.11a16.42,16.42,0,0,1,.35,2.06l.3,2.05c.1.69.2,1.37.32,2.06a15.37,15.37,0,0,0,.5,2,.11.11,0,0,1,0,.08.16.16,0,0,1-.12.18q-.12,0-.12.15a.9.9,0,0,0,.09.35,1.48,1.48,0,0,0,.24.29,1.6,1.6,0,0,0,0,.36,2.5,2.5,0,0,0,.15.85c.11.27.23.55.35.82a5.06,5.06,0,0,1,.35.82,2.46,2.46,0,0,1,.12.94,1.54,1.54,0,0,0,.44.44c.19.12.39.23.59.33a2.06,2.06,0,0,1,.52.35,1,1,0,0,1,.36.56,1,1,0,0,0-.33.49,1.16,1.16,0,0,1-.32.56,5.18,5.18,0,0,0,.47.91c.2.3.39.58.59.85L167,48a4.24,4.24,0,0,1,.56.88.6.6,0,0,1,.47.17.51.51,0,0,0,.47.15.93.93,0,0,1,.09.53,3.44,3.44,0,0,1,1.17-.21,5.15,5.15,0,0,1,.59,0,5.83,5.83,0,0,0,.59,0,2,2,0,0,0,.62-.09,1.71,1.71,0,0,1,.17.39,3.55,3.55,0,0,1,.09.47l.09.47A1.68,1.68,0,0,0,172.05,51.23ZM161,43.09c-.27-1.35-.55-2.69-.85-4s-.52-2.71-.73-4.08c-.12-.73-.21-1.45-.27-2.17s-.13-1.44-.23-2.15-.2-1.44-.35-2.14a12.18,12.18,0,0,0-.62-2.09v-.06a.2.2,0,0,1,.06-.14.29.29,0,0,0,.06-.21v-.12a1.32,1.32,0,0,1-.53-.73c-.1-.33-.19-.67-.27-1a5,5,0,0,0-.26-1,1.84,1.84,0,0,0-.53-.89c-.1,1.14-.2,2.28-.32,3.41s-.17,2.24-.21,3.38a.87.87,0,0,0-.38.59,3.37,3.37,0,0,0-.09.73,4.46,4.46,0,0,0,0,.5,2.58,2.58,0,0,0,.12.5,12.86,12.86,0,0,0-.76,2.73c-.16.92-.34,1.84-.53,2.76,0,.06-.06.19-.12.41s-.09.4-.15.62l-.14.58a2.48,2.48,0,0,0-.06.27,2.83,2.83,0,0,0,0,.41,2.83,2.83,0,0,1,0,.41l-.44.44a12.1,12.1,0,0,1-.44,2.17c-.2.69-.4,1.39-.62,2.12l.38,0,.41,0a14.71,14.71,0,0,0,1.88-.12l1.91-.27.68-.08a4,4,0,0,1,.67-.06,1,1,0,0,1,.35,0,1.86,1.86,0,0,0,.36,0,.43.43,0,0,0,.29-.18.41.41,0,0,1,.32-.17.91.91,0,0,0,.41.08,1,1,0,0,0,.5-.11A4.39,4.39,0,0,0,161,43.09Zm41.85,2.35a1.38,1.38,0,0,1-.41.91,1.22,1.22,0,0,1-.91.35,1.69,1.69,0,0,1-.56-.08,3.91,3.91,0,0,1-1.32.67l-1.44.47a14.34,14.34,0,0,1-1.62-.15,8.09,8.09,0,0,0-1.64,0,1.55,1.55,0,0,0-.62-.27c-.21,0-.44-.07-.67-.09a2.89,2.89,0,0,1-.65-.08,1.41,1.41,0,0,1-.59-.42h-1.46a1.48,1.48,0,0,1-.62-.2c-.26-.12-.55-.25-.88-.38a8.84,8.84,0,0,0-1-.38,3.11,3.11,0,0,0-1-.18h-.17a2.36,2.36,0,0,0-.77-.41l-.85-.24c-.29-.06-.58-.12-.85-.2a2.33,2.33,0,0,1-.71-.33c-.19-.13-.42-.27-.67-.41a1.35,1.35,0,0,0-.79-.2,8.49,8.49,0,0,0-1.18-.56c-.39-.16-.79-.3-1.2-.44L179,42.33a10.37,10.37,0,0,1-1.17-.56.37.37,0,0,1-.21,0l-.2,0q-.18,0-.21.12a1.65,1.65,0,0,0-.47-.35,4.55,4.55,0,0,1-.47-.36l-.23.06h-.24a2.46,2.46,0,0,1-.53-.06,3.1,3.1,0,0,1-.47-.14,4.73,4.73,0,0,0-.35,1.32c-.06.49-.11,1-.14,1.53s0,1-.09,1.52a6.14,6.14,0,0,1-.27,1.44,2,2,0,0,1,.06.47v.5a1.74,1.74,0,0,0,.15.79c0,.18-.08.35-.12.5a3.55,3.55,0,0,1-.09.47c0,.22,0,.41,0,.59a6.13,6.13,0,0,1,0,.62v.5a2.31,2.31,0,0,1-.06.52c-.19.12-.39.23-.58.33a4.47,4.47,0,0,0-.59.41.85.85,0,0,0-.71-.44,1.12,1.12,0,0,0-.17.38c0,.18-.11.26-.27.26L171,52.2a4,4,0,0,1-.59-.62.33.33,0,0,1,0-.15.55.55,0,0,1,.06-.26.53.53,0,0,0,.06-.24,1.87,1.87,0,0,0-.09-.61c0-.26-.07-.51-.09-.77s0-.47,0-.7a7.66,7.66,0,0,1,.06-1,4.88,4.88,0,0,1,.3-1,8.08,8.08,0,0,0,.44-1.79c.09-.63.16-1.25.2-1.88s.06-1.29.06-1.94.06-1.26.12-1.85a2.18,2.18,0,0,0-.5-.73,1.32,1.32,0,0,1-.27-.91A1,1,0,0,1,171,37a3.34,3.34,0,0,0,.61-.77c0-.12,0-.19.09-.23l.35-3.09c0-.21,0-.45.09-.7a5.27,5.27,0,0,0,.12-.71q.06-.67.06-1.32t.06-1.29c.09-1,.18-1.91.26-2.85a26.64,26.64,0,0,0,.15-2.82q0-.67-.06-1.35a7.81,7.81,0,0,0-.18-1.35l-1.11.33a2.18,2.18,0,0,0-1,.52h-.24a3.51,3.51,0,0,0-1.44.3c-.43.19-.87.38-1.32.56a2.66,2.66,0,0,1-.58.2,3.56,3.56,0,0,0-.62.12.77.77,0,0,0-.32.17,1.28,1.28,0,0,1-.33.21l-.5.12a.21.21,0,0,0-.17.26.22.22,0,0,1-.15.27.58.58,0,0,1-.41.14l-.41,0h-.12a13.26,13.26,0,0,1-1.41.91,4.77,4.77,0,0,1-1.64.47l-.65.41a1.3,1.3,0,0,1-.73.21,1,1,0,0,1-.53-.12,2.35,2.35,0,0,1-.35-.79,2,2,0,0,0-.47-.76.9.9,0,0,0,.2-.39,3,3,0,0,1,.09-.47l1.79-.73a10.79,10.79,0,0,0,1.7-.85.91.91,0,0,0,.27,0,1.47,1.47,0,0,0,.53-.09l.47-.2a4,4,0,0,1,.47-.21,1.22,1.22,0,0,1,.56-.06,11.68,11.68,0,0,1,2.11-.91,9.16,9.16,0,0,0,2.11-1,.43.43,0,0,1,.24.06.49.49,0,0,0,.23.06.24.24,0,0,0,.15,0,.87.87,0,0,1,.47-.32,3.32,3.32,0,0,1,.59-.18,3.91,3.91,0,0,0,.58-.21.68.68,0,0,0,.39-.44.66.66,0,0,0,.44.12,2.13,2.13,0,0,0,.91-.2,2.12,2.12,0,0,1,.94-.21.34.34,0,0,1,.2.06,1,1,0,0,0,.24,0c.15,0,.23-.05.23-.15a.44.44,0,0,1,.18-.26c1.19-.22,2.38-.41,3.55-.59a24.26,24.26,0,0,1,3.61-.26,1,1,0,0,1,.59-.18,1,1,0,0,1,.59.18c.33,0,.66-.07,1-.09s.66,0,1,0a18.9,18.9,0,0,1,2.35.15,14.74,14.74,0,0,1,2.38.47,11.14,11.14,0,0,1,2.29.82,10.85,10.85,0,0,1,2,1.2,4,4,0,0,0,.23.53,1.1,1.1,0,0,0,.39.41.12.12,0,0,1,0,.09v.09a1.22,1.22,0,0,0,.17.61,1.19,1.19,0,0,1,.21.71,2.37,2.37,0,0,1-.15.82,2.3,2.3,0,0,0-.09.82c-.21.32-.4.6-.55.85a2.59,2.59,0,0,0-.27,1,7.73,7.73,0,0,0-.94,1.18c-.27.41-.56.82-.85,1.23a6.94,6.94,0,0,1-.94,1.09,3.85,3.85,0,0,1-1.26.79,1.63,1.63,0,0,1-.24.65h-.61a.69.69,0,0,1-.3.35l-.41.23a1.27,1.27,0,0,0-.35.3.88.88,0,0,0-.12.5.33.33,0,0,0-.15,0,1.32,1.32,0,0,0-.7.29c-.25.2-.46.35-.62.47a11,11,0,0,1-1,.65,2.87,2.87,0,0,0-.89.82,15.26,15.26,0,0,0-2.23,1.17,9.89,9.89,0,0,1-2.29,1,3.4,3.4,0,0,1-1.11.79c-.42.18-.82.38-1.21.59v.09a.77.77,0,0,0,.18.47,2.5,2.5,0,0,0,.41.38,1.57,1.57,0,0,0,.5.21,1.05,1.05,0,0,0,.5,0,4.91,4.91,0,0,0,1.35.85c.51.21,1,.41,1.58.59s1.09.36,1.62.55a7.23,7.23,0,0,1,1.47.74h.7a4.56,4.56,0,0,0,1.59.88l1.79.53a2.5,2.5,0,0,0,.88.5,4.48,4.48,0,0,0,1.06.14H191a.66.66,0,0,0,.21,0v.06a.23.23,0,0,0,.09.21l.17.06a.37.37,0,0,1,.21.06.28.28,0,0,1,.18.11h.29a2.64,2.64,0,0,1,1.17.27,3.18,3.18,0,0,0,1.18.23,1.15,1.15,0,0,0,.41-.06.44.44,0,0,1,.26.24.85.85,0,0,0,.24.29l.38-.06h.35a4.72,4.72,0,0,1,1.21.15,6.49,6.49,0,0,1,1.14.44,14.81,14.81,0,0,1,1.85-.67,6.79,6.79,0,0,1,1.94-.27v.06a1.25,1.25,0,0,0,.18.65A6.74,6.74,0,0,1,202.83,45.44ZM191.58,22a.93.93,0,0,0-.15-.56,1,1,0,0,0-.32-.35,2.75,2.75,0,0,0-.44-.32,1.77,1.77,0,0,1-.38-.39c-.51-.15-1-.33-1.5-.52a11.47,11.47,0,0,0-1.5-.5c-.25-.06-.51-.11-.76-.15a3.29,3.29,0,0,0-.76-.09h-.65l-.38-.06-.35-.09-.82-.08c-.26,0-.52,0-.8,0-.51,0-1,0-1.52.06l-1.53.11c-.22,0-.44,0-.68,0a3.16,3.16,0,0,0-.64.06,1.93,1.93,0,0,0-.41.15l-.56.2c-.2.06-.39.13-.59.21a3.65,3.65,0,0,1-.47.18,2.73,2.73,0,0,1,0,.41v.38c0,.29,0,.59,0,.88a6.64,6.64,0,0,1-.12.88,2,2,0,0,1-.09.35c0,.12-.06.24-.08.35a2.74,2.74,0,0,0-.06.59v.56q-.06.68-.09,1.32t-.09,1.32c-.12,1.29-.24,2.58-.38,3.85s-.2,2.55-.23,3.85a9.15,9.15,0,0,0,1.85-.62c.58-.27,1.16-.57,1.73-.88s1.13-.66,1.7-1a11.45,11.45,0,0,1,1.79-.79,2,2,0,0,1,.56-.53,1.88,1.88,0,0,0,.59-.53.7.7,0,0,0,.44-.12.77.77,0,0,1,.38-.2c.94-.83,1.9-1.6,2.88-2.32s1.92-1.5,2.82-2.32a2.44,2.44,0,0,1,.38-.8c.19-.27.38-.54.56-.82s.33-.55.47-.82A2,2,0,0,0,191.58,22Zm30.31-5.76a1.21,1.21,0,0,1-.5.18l-.56.09a2,2,0,0,0-.5.12A.58.58,0,0,0,220,17a3.13,3.13,0,0,0-.65-.5c-.23-.14-.47-.28-.7-.44a4.24,4.24,0,0,0-.59.23,1.29,1.29,0,0,1-.59.15.69.69,0,0,1-.41-.15,2.12,2.12,0,0,1-.56.3l-.64.17a3.32,3.32,0,0,0-.62.24.83.83,0,0,0-.38.44q-.06-.15-.3-.09c-.13,0-.21,0-.23-.15a18.15,18.15,0,0,1-1.91.56c-.65.16-1.29.32-1.94.5s-1.28.37-1.91.59a12.68,12.68,0,0,0-1.82.79.12.12,0,0,0,0,.09,1.73,1.73,0,0,0,.09.56c.06.17.11.34.15.5a19.53,19.53,0,0,0-.71,3.64c-.11,1.23-.27,2.44-.47,3.64v.12a.28.28,0,0,0,.12.23.24.24,0,0,1,.12.24l0,.05a.48.48,0,0,0-.21.27,1.07,1.07,0,0,0,0,.32,2.06,2.06,0,0,0,0,.35,19,19,0,0,0-.67,3.41c-.1,1.16-.23,2.31-.38,3.47l-.27,1.93c0,.12-.08.24-.11.36a1.51,1.51,0,0,0,0,.32,16.12,16.12,0,0,0,.11,1.85,7.83,7.83,0,0,1,.09,1.82,1.44,1.44,0,0,1,.27.79,1.53,1.53,0,0,1,0,.3,1.5,1.5,0,0,1,0,.29,2.1,2.1,0,0,0,.88.53,2.82,2.82,0,0,1,.94.53v.11a1.69,1.69,0,0,1-.09.56c-.06.2-.11.39-.15.59s-.09.38-.14.68a1.26,1.26,0,0,1-.18.58,1.05,1.05,0,0,1-.44.35.94.94,0,0,1-.53.18.61.61,0,0,1-.26-.09L204.5,48a.74.74,0,0,0-.38.14.87.87,0,0,1-.47.15.66.66,0,0,1-.21,0,.49.49,0,0,1-.2-.06,1.81,1.81,0,0,0-.35-.53,5.8,5.8,0,0,0-.5-.41.8.8,0,0,0-.15-.61,3.48,3.48,0,0,1-.35-.53c0-.28-.08-.59-.12-.94a.89.89,0,0,0-.44-.77.9.9,0,0,0,.15-.55,1.05,1.05,0,0,0-.06-.33.37.37,0,0,0-.18-.26v-.06a.17.17,0,0,1,.09-.21.25.25,0,0,0,.15-.23v-.12a9,9,0,0,1-.21-2c0-.64,0-1.28.06-1.9a15.7,15.7,0,0,0,0-1.94.86.86,0,0,0,.26-.47,3.69,3.69,0,0,0,.18-.71,4.68,4.68,0,0,0,.06-.73c0-.26,0-.46.06-.62a30,30,0,0,1,.47-3.29,21.75,21.75,0,0,0,.38-3.34,1.37,1.37,0,0,0,.18-.62c0-.26,0-.52,0-.79a8,8,0,0,1,.05-.86,1.87,1.87,0,0,1,.24-.7,9,9,0,0,1,.15-1.64,11,11,0,0,0,.14-1.71,4.24,4.24,0,0,0-.09-.85,1.38,1.38,0,0,0-.52-.12,1.75,1.75,0,0,0-.68.15.9.9,0,0,0-.47.38,5.36,5.36,0,0,0-1.26.21,4.36,4.36,0,0,1-1.24.17H199l-.26,0a3.26,3.26,0,0,1-.44.15c-.14,0-.2.16-.18.35a8,8,0,0,0-1.79.39c-.57.19-1.14.41-1.7.64s-1.14.42-1.71.62a8.39,8.39,0,0,1-1.79.38.79.79,0,0,0-.41.62,2.54,2.54,0,0,1-1.09-.33,8.1,8.1,0,0,0-1-.5,4.17,4.17,0,0,1-.18-1.17A3.59,3.59,0,0,1,188.7,21a2,2,0,0,1,.94-1l.27.06h.26a2.57,2.57,0,0,0,.94-.18,3,3,0,0,1,1-.17.68.68,0,0,1,.32.09,1.73,1.73,0,0,1,.53-.18l.56-.15a2.12,2.12,0,0,0,.53-.23.63.63,0,0,0,.29-.41.69.69,0,0,0,.33.14,2,2,0,0,0,.35,0,2.53,2.53,0,0,0,.79-.14,1.42,1.42,0,0,0,.65-.47.74.74,0,0,0,.58.23,1.76,1.76,0,0,0,.8-.2,1.57,1.57,0,0,1,.79-.24.5.5,0,0,1,.44.21,2.23,2.23,0,0,1,.76-.41l.88-.27c.32-.08.6-.17.86-.26a1.57,1.57,0,0,0,.64-.41,2.67,2.67,0,0,0,.47,0,3.56,3.56,0,0,0,.94-.12c.31-.1.63-.19.94-.27l.62-.06a.84.84,0,0,0,.41-.14,4,4,0,0,1,.41-.21,2.21,2.21,0,0,1,.41-.14,1.66,1.66,0,0,1,.56,0,6.51,6.51,0,0,1,1.5-.59c.53-.14,1.06-.26,1.61-.35s1.09-.25,1.62-.39a5.87,5.87,0,0,0,1.49-.67h.09a3.25,3.25,0,0,0,1.15-.21,4.23,4.23,0,0,0,1.08-.55l.18,0h.21a5.26,5.26,0,0,0,1.58-.24,5.67,5.67,0,0,1,1.65-.23,1.78,1.78,0,0,1,.79.14,2,2,0,0,1,.53.33l.5.35a1.88,1.88,0,0,0,.67.26,2.26,2.26,0,0,1,.27,1.09Q221.86,15.67,221.89,16.25Z"/></svg>